<svg width="1440" height="3131" viewBox="0 0 1440 3131" fill="none" xmlns="http://www.w3.org/2000/svg">
<rect width="1440" height="3131" fill="#212832"/>
<path d="M173.5 2881.06C128.3 2901.86 43.3333 2920.73 6.5 2927.56H-8C-8 3261.9 -6.2 3932.96 1 3942.56C8.2 3952.16 32.3333 3955.56 43.5 3956.06C206.5 3996.56 256 3859.56 389 3849.06C522 3838.56 543 3967.06 689 3942.56C835 3918.06 834 3861.06 988 3942.56C1142 4024.06 1252 3976.06 1339.5 3927.56C1409.5 3888.76 1443.67 3881.4 1452 3882.56V2923.56C1340.5 2888.56 1047 2961.06 903 2984.06C759 3007.06 613.5 2986.56 500.5 2915.06C387.5 2843.56 230 2855.06 173.5 2881.06Z" fill="#29A29D" stroke="#29A29D"/>
<path d="M171.5 669.063C126.3 689.863 41.3333 708.73 4.5 715.563H-10C-10 1049.9 -8.2 1720.96 -1 1730.56C6.2 1740.16 30.3333 1743.56 41.5 1744.06C204.5 1784.56 254 1647.56 387 1637.06C520 1626.56 541 1755.06 687 1730.56C833 1706.06 832 1649.06 986 1730.56C1140 1812.06 1250 1764.06 1337.5 1715.56C1407.5 1676.76 1441.67 1669.4 1450 1670.56V711.563C1338.5 676.563 1045 749.063 901 772.063C757 795.063 611.5 774.563 498.5 703.063C385.5 631.563 228 643.063 171.5 669.063Z" fill="#29A29D" stroke="#29A29D"/>
</svg>
