<svg width="38" height="38" viewBox="0 0 38 38" fill="none" xmlns="http://www.w3.org/2000/svg">
<g clip-path="url(#clip0_1_312)">
<path d="M18.7002 0.0778856C18.7002 0.149606 18.6082 0.853772 18.4899 1.65574C18.3716 2.45771 18.2401 3.43571 18.1809 3.83344C18.1283 4.23116 17.964 5.37869 17.8128 6.36974C17.6616 7.36731 17.5039 8.80172 17.4513 9.56456C17.3658 10.8816 16.9846 13.9395 16.8597 14.3112C16.8203 14.4285 16.301 14.1808 15.4399 13.6331C14.6905 13.1571 13.0998 12.2117 11.8837 11.5075C10.6676 10.8099 9.15578 9.92969 8.50502 9.545C6.86169 8.58004 6.55275 8.61263 7.4993 9.64932C8.25523 10.4774 13.0538 16.2411 13.1063 16.3845C13.1326 16.4563 12.8105 16.5541 12.3767 16.6062C11.9494 16.6584 11.2395 16.7627 10.7925 16.8344C10.3455 16.9061 8.89942 17.1343 7.57161 17.3365C1.45186 18.2819 -0.0994433 18.6079 -0.000843611 18.9143C0.097756 19.2142 2.89799 19.625 7.05232 19.951C7.6242 19.9966 8.97172 20.1271 10.0563 20.2379C11.1409 20.3487 12.3438 20.4596 12.7317 20.4726C13.1195 20.4857 13.4744 20.5574 13.5139 20.6226C13.5796 20.7269 10.6874 24.3455 8.03174 27.4686C6.19121 29.6398 6.63163 29.4833 12.3175 25.9495C13.9346 24.9454 16.6822 23.348 16.794 23.348C16.8794 23.348 16.932 23.3936 16.932 23.4653C16.932 23.5305 17.0306 24.339 17.1489 25.2518C17.2672 26.1646 17.3987 27.4425 17.4381 28.0815C17.5433 29.6854 17.6551 30.6113 17.9509 32.3587C18.0232 32.802 18.1218 33.5062 18.1744 33.9365C18.5096 37.0335 18.8448 38.4354 19.042 37.5747C19.1998 36.9162 19.9886 31.1133 20.1398 29.5224C20.5933 24.8215 20.7971 23.3545 20.9877 23.3545C21.0732 23.3545 23.9589 25.0627 26.884 26.8427C30.9003 29.2877 30.6899 29.1834 30.6899 28.7987C30.6899 28.6814 30.3941 28.2576 30.0195 27.8468C29.6514 27.436 28.8691 26.5037 28.2775 25.7734C27.6859 25.0432 26.5027 23.5957 25.6482 22.559C24.2021 20.8051 24.1166 20.6617 24.4256 20.5835C24.6096 20.5313 26.0492 20.3813 27.6136 20.2509C29.1781 20.1205 30.9923 19.9445 31.6365 19.8728C32.2807 19.7945 33.2338 19.7032 33.7531 19.6576C35.4556 19.5207 37.3093 19.2208 37.6708 19.0252C37.9009 18.9013 37.8549 18.8426 37.3487 18.634C37.0266 18.5036 36.4021 18.3406 35.9552 18.2754C35.5082 18.2102 34.5616 18.0602 33.8386 17.9298C32.3201 17.669 28.764 17.1083 26.2924 16.7431C25.359 16.6062 24.5833 16.4758 24.5636 16.4563C24.5373 16.4367 25.852 14.8458 27.4887 12.9094C29.1255 10.9729 30.519 9.31028 30.5979 9.19944C30.8148 8.893 30.5585 8.74956 30.1969 8.97776C29.6908 9.29724 27.4887 10.5556 26.4567 11.1163C25.944 11.3967 25.2867 11.7683 25.0303 11.9379C24.7674 12.1009 24.1298 12.4986 23.6302 12.8115C23.1306 13.118 22.3681 13.6005 21.9672 13.8613C21.5596 14.1221 21.1521 14.3438 21.0666 14.3438C20.8168 14.3438 20.429 11.8531 20.2187 8.97776C20.0543 6.72182 19.0486 0.0713656 18.8646 0.00616504C18.7857 -0.0199152 18.7002 0.0126851 18.7002 0.0778856Z" fill="white"/>
</g>
<defs>
<clipPath id="clip0_1_312">
<rect width="37.8228" height="37.8228" fill="white" transform="translate(-0.000244141)"/>
</clipPath>
</defs>
</svg>
