<svg width="1300" height="930" viewBox="0 0 1300 930" fill="none" xmlns="http://www.w3.org/2000/svg">
<g clip-path="url(#clip0_1_281)">
<path d="M424.343 143.719C424.431 144.161 424.633 145.081 424.784 145.774C425.73 149.973 424.658 153.906 421.469 157.941C418.569 161.609 416.653 165.177 416.237 167.699C415.606 171.494 416.363 176.159 418.178 179.626C418.418 180.08 418.619 180.559 418.619 180.697C418.619 180.912 421.368 185.11 421.986 185.854C422.137 186.043 422.276 186.27 422.276 186.358C422.276 186.446 422.629 186.85 423.082 187.279C423.524 187.695 424.633 188.943 425.528 190.002C426.423 191.073 427.243 192.032 427.319 192.107C427.394 192.183 427.836 192.788 428.264 193.431L429.071 194.616L428.201 195.94C427.722 196.659 427.331 197.528 427.319 197.856C427.306 199.155 426.928 199.231 425.188 198.31C422.566 196.923 421.09 196.066 420.611 195.663C420.359 195.448 419.716 195.108 419.187 194.906C418.657 194.704 416.615 193.771 414.698 192.864C412.769 191.943 410.109 190.821 408.798 190.367C407.487 189.914 406.289 189.46 406.138 189.359C405.974 189.258 405.671 189.17 405.432 189.144C405.192 189.119 403.982 188.779 402.759 188.375C400.59 187.682 398.208 186.989 396.178 186.484C395.623 186.346 394.438 186.043 393.505 185.803C389.42 184.744 385.449 184.366 378.603 184.379C373.207 184.429 371.013 184.606 369.979 185.11C368.164 186.005 367.508 188.703 368.391 191.704C368.655 192.624 369.097 194.351 369.349 195.499C370.925 202.635 374.253 208.724 378.351 211.939C380.469 213.591 380.658 213.906 380.696 215.797C380.734 217.802 380.784 218.028 381.402 219.428C381.654 219.995 381.868 220.537 381.868 220.6C381.868 221.243 389.067 227.207 389.836 227.207C390.025 227.207 390.366 227.446 390.643 227.774C390.92 228.089 391.337 228.354 391.626 228.379C392.345 228.455 392.635 228.518 393.202 228.77C394.249 229.224 397.905 228.695 400.099 227.774C401.246 227.295 402.343 226.866 402.494 226.841C402.646 226.816 403.289 226.551 403.894 226.274C406.037 225.303 407.84 224.471 409.239 223.803C410.008 223.437 411.32 222.92 412.177 222.655C416.325 221.344 417.333 221.054 417.422 221.143C417.485 221.206 416.88 221.672 416.047 222.202C415.215 222.731 414.484 223.261 414.383 223.387C414.282 223.525 414.156 223.588 414.068 223.538C413.992 223.488 412.505 224.395 410.79 225.543C409.075 226.69 407.449 227.762 407.209 227.913C404.663 229.451 399.557 233.977 399.557 234.696C399.557 234.872 399.368 235.162 399.153 235.339C398.939 235.515 398.662 236.146 398.561 236.7C398.46 237.28 398.132 238.238 397.842 238.856C397.539 239.474 397.313 240.13 397.313 240.331C397.313 240.52 397.199 240.697 397.073 240.697C396.695 240.697 395.321 243.988 394.917 245.853C394.627 247.19 393.871 249.623 393.505 250.43C393.278 250.909 393.102 251.426 393.102 251.565C393.102 251.703 392.799 252.435 392.421 253.204C392.043 253.985 391.702 254.78 391.639 255.019C391.589 255.259 391.475 255.511 391.387 255.574C391.147 255.776 388.412 261.487 387.718 263.227C386.773 265.622 386.558 267.589 386.974 270.022C387.277 271.737 388.033 272.506 389.294 272.38C390.063 272.304 390.202 272.14 390.63 270.741C390.895 269.884 391.248 268.661 391.412 268.018C391.765 266.631 393.165 264.677 394.425 263.819C394.93 263.479 395.875 263.126 396.543 263.025C400.338 262.458 403.667 261.361 405.848 259.961C409.466 257.642 414.396 250.531 417.523 243.092C418.96 239.701 419.502 238.302 420.044 236.625C420.397 235.553 420.775 234.418 420.901 234.116C421.015 233.801 421.582 232.124 422.15 230.359C422.717 228.594 423.637 226.261 424.205 225.152L425.238 223.147L425.415 228.203C425.617 233.763 425.591 233.611 426.65 236.36C427.066 237.432 427.419 238.465 427.432 238.655C427.445 238.844 427.546 239.008 427.659 239.008C427.772 239.008 427.936 239.31 428.025 239.688C428.113 240.067 428.605 240.987 429.109 241.731C429.613 242.475 430.218 243.445 430.445 243.887C430.672 244.315 431.202 244.857 431.593 245.059C432.236 245.4 432.412 245.387 432.942 245.009C433.736 244.454 435.741 241.302 436.598 239.298C436.963 238.44 437.417 237.369 437.619 236.915C438.754 234.343 438.918 233.246 438.993 228.278C439.018 226.009 439.119 224.055 439.208 223.967C439.649 223.525 441.439 227.282 442.246 230.359C442.448 231.14 442.713 231.619 442.876 231.519C443.04 231.418 443.078 231.481 442.952 231.67C442.448 232.489 447.352 244.744 450.138 249.648C453.126 254.893 453.063 254.805 456.329 258.032C458.838 260.516 462.481 262.155 467.083 262.874C467.865 263 468.848 263.252 469.327 263.466C470.903 264.147 472.996 266.896 473.248 268.635C473.45 270.022 473.954 271.623 474.307 272.09C474.748 272.657 476.047 272.493 476.703 271.8C477.106 271.371 477.371 270.615 477.51 269.493C477.623 268.585 477.711 267.753 477.686 267.665C477.661 267.576 477.585 266.996 477.51 266.353C477.295 264.588 476.677 262.987 474.345 258.171C472.315 253.973 470.676 250.127 470.424 248.942C470.386 248.753 470.172 248.009 469.945 247.253C469.718 246.509 469.378 245.362 469.163 244.643C468.962 243.95 468.621 243.029 468.419 242.613C468.205 242.185 468.054 241.769 468.066 241.668C468.079 241.567 467.966 241.403 467.802 241.302C467.638 241.201 467.045 239.928 466.49 238.453C464.902 234.28 464.07 233.17 460.288 230.081C458.737 228.821 448.689 222.277 448.411 222.353C448.323 222.378 447.806 222.025 447.276 221.571C446.747 221.117 446.558 220.865 446.86 221.004C447.176 221.155 447.478 221.269 447.554 221.269C448.474 221.231 453.303 222.933 456.278 224.332C459.153 225.681 462.355 227.056 465.242 228.152C467.6 229.048 471.533 229.073 473.084 228.19C473.614 227.888 474.395 227.459 474.824 227.219C476.236 226.463 481.14 222.378 482.061 221.193C483.271 219.63 483.813 217.953 483.813 215.847C483.813 213.881 483.889 213.742 486.41 211.649C490.546 208.207 493.849 201.664 495.45 193.809C495.501 193.57 495.753 192.637 496.017 191.729C496.547 189.939 496.484 187.821 495.866 186.459C495.059 184.681 493.773 184.429 485.641 184.429C477.27 184.429 473.904 184.896 465.583 187.253C461.031 188.539 453.114 191.199 451.513 191.981C450.819 192.322 448.878 193.267 447.163 194.112C445.448 194.944 443.444 195.99 442.662 196.457C440.153 197.932 437.165 199.42 437.354 199.13C437.569 198.777 436.762 196.835 435.904 195.65L435.261 194.767L436.194 193.393C436.699 192.649 437.632 191.489 438.224 190.872C442.359 186.509 446.104 180.849 447.403 176.965C448.676 173.171 448.689 168.128 447.428 165.303C447.062 164.471 446.734 163.677 446.709 163.564C446.596 163.009 445.083 160.651 443.797 159.012C440.115 154.36 439.359 152.582 439.384 148.636C439.397 146.795 439.548 145.585 439.888 144.728C440.292 143.707 440.304 143.454 439.989 143.265C438.426 142.307 437.48 147.426 438.338 152.129C438.691 154.032 440.405 157.462 441.843 159.138C443.192 160.714 443.192 160.714 443.872 161.95C445.688 165.266 446.028 166.678 446.016 170.674C446.003 173.082 445.877 174.116 445.411 175.44C444.654 177.558 444.074 178.844 443.381 179.928C443.078 180.407 442.624 181.151 442.372 181.618C441.717 182.803 439.296 185.866 437.468 187.846C435.892 189.56 434.48 191.477 433.698 193.002C433.332 193.708 433.106 193.834 432.223 193.834C431.315 193.834 431.126 193.721 430.773 192.927C430.08 191.401 429.386 190.468 426.94 187.846C426.461 187.329 425.453 186.093 424.696 185.11C423.94 184.127 423.259 183.244 423.183 183.168C422.654 182.652 421.116 180.168 420.284 178.491C418.317 174.507 417.762 170.334 418.708 166.64C418.998 165.493 419.439 164.232 419.666 163.891C419.893 163.538 420.082 163.059 420.082 162.82C420.082 162.58 420.195 162.391 420.334 162.391C420.473 162.391 420.662 162.114 420.75 161.761C420.838 161.408 421.595 160.298 422.439 159.264C423.864 157.525 425.705 154.41 425.907 153.402C426.663 149.657 426.6 145.484 425.793 144.097C425.491 143.593 425.011 143.114 424.734 143.051C424.268 142.938 424.217 143.051 424.343 143.719ZM381.553 186.371C384.175 186.598 387.529 187.026 389.118 187.342C389.95 187.505 390.731 187.568 390.87 187.48C391.009 187.392 391.286 187.442 391.475 187.581C391.778 187.821 394.551 188.552 396.417 188.892C396.796 188.955 397.212 188.854 397.338 188.678C397.502 188.426 397.565 188.451 397.565 188.766C397.565 189.094 398.157 189.334 399.809 189.687C401.044 189.951 402.154 190.178 402.267 190.191C403.188 190.267 412.328 194.162 418.014 196.923C420.523 198.134 422.755 199.142 422.956 199.142C423.171 199.142 423.372 199.231 423.423 199.357C423.473 199.47 424.759 200.176 426.26 200.907C428.693 202.092 428.983 202.319 428.869 202.874C428.794 203.227 428.289 205.32 427.735 207.564C426.474 212.67 426.209 214.171 425.768 218.961C425.642 220.348 425.453 220.815 424.684 221.622C424.179 222.151 423.448 223.109 423.057 223.727C422.213 225.064 420.019 230.598 420.019 231.38C420.019 231.67 419.931 232.01 419.817 232.111C419.704 232.225 419.59 232.477 419.552 232.653C419.515 232.842 419.401 233.372 419.313 233.826C419.212 234.28 419.048 234.784 418.922 234.948C418.808 235.112 418.292 236.259 417.787 237.495C417.283 238.73 416.249 241 415.505 242.55C414.749 244.101 414.144 245.463 414.144 245.589C414.144 245.715 413.728 246.408 413.223 247.127C412.719 247.845 412.139 248.753 411.937 249.131C411.093 250.733 408.243 254.427 406.503 256.166C404.297 258.373 402.898 259.142 398.825 260.39C395.648 261.361 393.618 262.395 392.169 263.781C391.425 264.5 390.769 265.257 390.719 265.471C390.681 265.685 390.479 266.253 390.29 266.706C390.101 267.173 389.824 268.169 389.685 268.913C389.408 270.388 389.231 270.791 388.878 270.791C388.197 270.791 388.424 266.971 389.269 264.475C389.723 263.138 392.37 257.679 392.837 257.125C393.013 256.91 393.076 256.746 392.963 256.746C392.862 256.746 393.089 256.129 393.467 255.385C394.198 253.935 395.068 251.426 397.01 245.223C398.548 240.306 400.401 236.599 402.545 234.204C403.049 233.637 403.478 233.057 403.478 232.943C403.478 232.817 403.818 232.527 404.234 232.262C404.663 231.998 405.306 231.506 405.697 231.14C406.743 230.157 410.097 227.812 410.462 227.812C410.651 227.812 410.777 227.711 410.777 227.585C410.777 227.459 411.307 227.056 411.95 226.703C413.475 225.858 419.225 221.849 420.8 220.537C422.414 219.188 422.351 218.823 420.511 218.835C418.506 218.848 412.454 220.361 412.454 220.853C412.454 221.004 412.328 221.042 412.177 220.941C412.026 220.84 411.332 221.029 410.639 221.344C409.945 221.659 409.328 221.924 409.252 221.924C409.038 221.924 404.726 223.967 404.574 224.143C404.499 224.231 403.868 224.509 403.175 224.761C402.482 225.013 400.843 225.643 399.531 226.186C396.695 227.333 394.904 227.509 392.61 226.841C390.341 226.186 389.773 225.858 387.264 223.765C382.877 220.109 382.146 219.024 381.919 215.835C381.755 213.54 381.377 212.708 379.649 210.804C374.203 204.841 373.484 203.53 371.265 195.536C369.689 189.863 369.538 188.716 370.269 187.405C370.736 186.56 371 186.396 372.047 186.257C373.358 186.056 378.956 186.144 381.553 186.371ZM492.525 186.182C493.357 186.219 493.597 186.383 493.988 187.215C494.795 188.918 494.568 190.746 492.739 197.037C492.424 198.108 492.134 199.167 492.071 199.42C491.769 200.706 490.596 203.391 489.865 204.501C489.008 205.786 486.02 209.417 483.813 211.851C482.653 213.137 482.578 213.326 482.49 215.116C482.363 217.549 482.187 218.381 481.494 219.554C480.75 220.815 475.581 225.19 473.916 225.971C473.172 226.324 472.668 226.69 472.782 226.816C472.895 226.942 472.832 226.955 472.643 226.854C472.466 226.753 471.723 226.829 471.029 227.018C468.571 227.686 464.738 226.551 457.678 223.059C456.127 222.29 453.265 221.155 451.286 220.537C449.306 219.907 447.39 219.302 447.012 219.163C446.054 218.835 443.028 218.747 442.599 219.037C442.322 219.226 442.322 219.34 442.599 219.693C443.116 220.336 446.369 222.744 446.722 222.744C446.886 222.744 447.012 222.845 447.012 222.958C447.012 223.147 450.996 225.933 451.929 226.4C452.66 226.766 458.157 230.497 458.913 231.14C463.276 234.872 465.709 239.361 468.482 248.741C469.504 252.22 470.323 254.225 472.731 259.142C473.853 261.436 475.038 264.147 475.366 265.13C475.959 266.946 476.11 269.594 475.681 270.64C475.48 271.144 475.442 271.157 475.278 270.69C474.849 269.455 474.774 269.178 474.648 268.522C474.232 266.227 472.87 263.529 472.29 263.895C472.139 263.996 472.025 263.895 472.013 263.693C472 263.239 469.882 261.89 468.356 261.361C468.281 261.336 468.041 261.235 467.789 261.146C467.549 261.046 466.213 260.604 464.826 260.163C463.439 259.722 461.75 259.079 461.107 258.751C459.796 258.083 455.434 254.023 455.434 253.468C455.434 253.254 455.308 253.09 455.156 253.09C455.005 253.09 454.879 252.914 454.879 252.699C454.879 252.485 454.778 252.271 454.665 252.22C454.551 252.17 453.832 251.161 453.089 250.014C452.345 248.867 451.513 247.581 451.248 247.202C449.861 245.173 445.751 235.944 444.755 232.603C444.415 231.456 443.822 229.728 443.456 228.808C443.091 227.875 442.788 227.018 442.788 226.879C442.788 226.501 441.578 224.055 441.338 223.954C441.225 223.904 441.124 223.702 441.124 223.513C441.124 223.324 440.594 222.618 439.939 221.924C439.271 221.231 438.729 220.563 438.703 220.399C438.678 220.247 438.577 219.05 438.476 217.738C438.249 214.826 437.733 211.914 436.9 208.724C436.56 207.413 436.232 206.089 436.182 205.786C436.131 205.471 435.955 204.677 435.778 203.984C435.602 203.29 435.526 202.597 435.602 202.42C435.715 202.13 439.674 200.075 442.864 198.651C443.608 198.323 445.801 197.276 447.781 196.306C449.76 195.335 451.992 194.288 452.773 193.961C453.555 193.633 454.929 193.053 455.862 192.649C458.535 191.515 461.057 190.594 462.569 190.216C463.351 190.027 464.12 189.825 464.272 189.787C464.423 189.737 465.091 189.611 465.759 189.497C466.591 189.346 466.957 189.144 466.957 188.829C466.957 188.514 467.02 188.476 467.171 188.728C467.323 188.968 467.65 189.006 468.293 188.817C468.798 188.678 469.201 188.615 469.201 188.665C469.201 188.728 469.491 188.665 469.869 188.514C470.638 188.224 475.833 187.266 479.148 186.799C482.691 186.27 488.428 186.018 492.525 186.182Z" fill="white"/>
<path d="M372.992 188.791C372.715 189.232 373.976 192.636 374.934 194.086C376.775 196.834 377.834 197.818 380.355 199.053C383.721 200.718 385.36 200.377 385.133 198.045C384.919 195.99 383.583 193.027 383.003 193.38C382.877 193.456 382.776 193.317 382.801 193.077C382.864 192.271 378.275 189.093 377.632 189.484C377.468 189.585 377.367 189.547 377.367 189.383C377.367 189.232 376.649 188.967 375.791 188.803C373.799 188.4 373.232 188.4 372.992 188.791Z" fill="white"/>
<path d="M396.367 193.569C395.812 193.884 395.812 193.973 396.342 197.641C396.493 198.738 396.468 198.801 395.699 198.94C395.245 199.028 394.703 199.167 394.438 199.28C394.097 199.419 393.77 199.091 393.139 197.969C392.219 196.343 390.782 194.653 390.29 194.653C390.126 194.653 389.874 194.88 389.723 195.17C389.508 195.586 389.697 196.04 390.618 197.351C391.261 198.259 391.942 199.18 392.143 199.381C392.66 199.911 392.61 200.075 391.752 200.604C391.034 201.045 390.946 201.033 389.723 200.15C388.172 199.053 387.655 198.839 387.176 199.129C386.646 199.457 387.037 200.226 388.033 200.781C389.899 201.827 389.899 201.789 388.651 203.416C387.529 204.891 386.609 207.034 386.609 208.181C386.609 208.497 386.974 209.102 387.428 209.556C387.882 210.009 388.172 210.375 388.084 210.375C387.995 210.375 388.487 210.804 389.181 211.346C390.681 212.493 394.047 214.157 394.425 213.918C394.589 213.817 394.728 213.855 394.791 214.019C394.841 214.17 395.257 214.359 395.711 214.435C397.741 214.8 399.178 214.977 400.023 214.952C400.527 214.939 401.372 214.914 401.939 214.901C402.507 214.889 402.872 214.763 402.784 214.624C402.696 214.485 402.86 214.435 403.162 214.51C404.02 214.737 409.668 212.569 410.223 211.8C410.298 211.699 411.08 211.321 411.962 210.955C413.753 210.211 413.992 209.656 412.984 208.597C412.656 208.244 412.328 207.74 412.29 207.475C412.189 206.782 409.718 203.643 408.508 202.672L407.462 201.827L408.042 200.768C408.357 200.176 408.697 199.709 408.798 199.709C408.899 199.709 409.138 199.23 409.353 198.612C409.718 197.515 409.605 196.633 409.101 196.633C408.722 196.633 407.575 198.259 407.121 199.444C406.919 199.974 406.642 200.541 406.529 200.68C406.403 200.819 405.558 200.617 404.537 200.213C403.553 199.823 402.545 199.432 402.28 199.343C401.839 199.192 401.839 199.079 402.204 198.032C402.431 197.402 402.645 196.229 402.683 195.422C402.759 194.136 402.696 193.96 402.229 193.96C401.662 193.96 401.561 194.2 400.943 197.251L400.616 198.852L399.468 198.738C398.094 198.6 397.867 198.284 397.867 196.582C397.867 195.864 397.741 195.196 397.59 195.095C397.439 195.006 397.375 194.754 397.439 194.578C397.514 194.376 397.426 194.036 397.224 193.758C396.959 193.38 396.77 193.342 396.367 193.569ZM399.557 201.197C399.557 201.815 398.687 202.798 398.145 202.798C397.867 202.798 397.413 202.457 397.161 202.067C396.758 201.449 396.745 201.298 397.06 201.096C397.653 200.705 399.557 200.781 399.557 201.197ZM402.04 201.386C402.154 201.386 402.608 201.714 403.024 202.104L403.805 202.823L403.175 203.491C402.62 204.084 402.494 204.109 402.141 203.756C401.914 203.529 401.486 203.176 401.17 202.949C400.742 202.647 400.641 202.357 400.78 201.802C400.918 201.272 401.095 201.096 401.397 201.209C401.637 201.31 401.927 201.386 402.04 201.386ZM396.543 203.416C396.72 203.542 396.682 203.882 396.417 204.386C396.064 205.092 395.875 205.181 394.69 205.206C393.946 205.219 393.366 205.105 393.366 204.941C393.366 204.475 394.186 202.987 394.829 202.294L395.421 201.651L395.837 202.445C396.077 202.874 396.392 203.315 396.543 203.416ZM392.66 202.457C392.547 202.722 392.307 203.693 392.105 204.601C391.765 206.202 391.803 206.58 392.496 208.698C392.673 209.228 392.849 209.833 392.887 209.997C392.925 210.173 393.152 210.627 393.404 211.031C393.656 211.434 393.782 211.825 393.694 211.913C393.354 212.254 389.786 209.833 388.739 208.547C387.995 207.639 387.97 207.551 388.399 206.908C388.651 206.53 388.853 206.076 388.853 205.899C388.853 205.382 390.353 203.605 391.5 202.773C392.786 201.84 392.938 201.802 392.66 202.457ZM408.974 205.66C410.21 206.996 411.622 209.039 411.471 209.266C411.307 209.53 405.432 212.367 404.801 212.493C404.537 212.544 404.234 212.443 404.133 212.279C404.02 212.09 404.058 212.039 404.234 212.153C404.562 212.354 405.974 210.715 406.478 209.543C406.919 208.509 406.856 205.156 406.365 204.008L405.949 203.012L407.033 203.87C407.613 204.336 408.508 205.156 408.974 205.66ZM405.407 206.492C405.419 206.593 404.864 206.668 404.158 206.668C403.011 206.656 402.91 206.605 403.062 206.063C403.15 205.748 403.515 205.168 403.843 204.815L404.448 204.16L404.915 205.231C405.18 205.824 405.394 206.391 405.407 206.492ZM396.026 207.261C396.165 207.891 396.026 208.345 395.421 209.228C394.98 209.871 394.551 210.388 394.451 210.388C394.009 210.413 393.177 207.248 393.492 206.744C393.593 206.58 394.173 206.454 394.753 206.454C395.711 206.442 395.863 206.53 396.026 207.261ZM405.091 208.118C405.255 208.156 404.272 210.262 403.931 210.615C403.629 210.93 403.427 210.816 402.797 209.984C402.267 209.291 402.091 208.799 402.217 208.396C402.381 207.891 402.582 207.828 403.704 207.954C404.436 208.03 405.041 208.106 405.091 208.118ZM397.918 209.556C398.485 209.808 398.548 209.997 398.46 211.232C398.346 212.808 397.968 212.985 396.468 212.153C395.409 211.56 395.396 211.396 396.304 210.224C397.111 209.165 397.073 209.19 397.918 209.556ZM401.7 209.732C401.599 209.833 401.776 210.337 402.103 210.867C402.431 211.396 402.645 211.85 402.582 211.901C402.381 212.064 400.553 212.619 400.2 212.619C399.67 212.619 399.796 210.35 400.363 209.909C400.817 209.543 402.04 209.392 401.7 209.732Z" fill="white"/>
<path d="M414.534 201.083C413.488 201.714 413.034 202.445 413.034 203.466C413.034 204.613 414.106 204.412 415.581 203C416.917 201.714 417.182 201.146 416.627 200.793C416.047 200.428 415.493 200.503 414.534 201.083Z" fill="white"/>
<path d="M381.339 203.68C379.838 204.323 379.574 204.941 380.481 205.647C381.49 206.416 383.394 206.328 384.541 205.445C386.041 204.298 385.776 203.668 383.658 203.34C382.864 203.227 382.171 203.327 381.339 203.68Z" fill="white"/>
<path d="M416.753 206.858C414.522 207.627 415.014 208.963 417.535 208.976C418.443 208.976 420.044 208.219 420.031 207.778C420.019 207.021 419.54 206.668 418.682 206.794C418.203 206.87 417.787 206.832 417.749 206.731C417.699 206.631 417.258 206.681 416.753 206.858Z" fill="white"/>
<path d="M414.862 211.762C414.547 212.279 415.089 212.884 416.4 213.451C417.951 214.132 418.909 214.208 418.909 213.666C418.922 212.506 415.417 210.867 414.862 211.762Z" fill="white"/>
<path d="M385.083 212.228C383.822 212.884 383.381 213.376 383.318 214.17C383.205 215.595 385.058 215.431 386.23 213.905C386.722 213.262 386.911 212.758 386.785 212.38C386.558 211.674 386.205 211.648 385.083 212.228Z" fill="white"/>
<path d="M410.487 213.905C409.92 214.586 410.387 215.595 411.912 216.956C413.538 218.419 414.32 218.595 414.572 217.574C414.774 216.767 414.131 215.708 412.58 214.346C411.483 213.376 411.004 213.275 410.487 213.905Z" fill="white"/>
<path d="M389.496 215.242C388.676 215.695 387.315 217.599 387.088 218.608C386.936 219.251 387.037 219.44 387.63 219.717C388.311 220.032 388.424 219.969 389.534 218.797C390.668 217.599 391.626 215.721 391.11 215.721C390.971 215.721 390.87 215.557 390.92 215.368C391.009 214.889 390.252 214.826 389.496 215.242Z" fill="white"/>
<path d="M405.495 215.91C404.902 216.149 405.129 218.04 405.936 219.516C406.541 220.612 406.844 220.902 407.411 220.902C408.054 220.902 408.117 220.802 408.13 219.78C408.142 219.163 407.978 218.305 407.764 217.877C407.562 217.448 407.449 217.095 407.525 217.095C407.6 217.095 407.361 216.78 406.995 216.402C406.339 215.721 406.138 215.658 405.495 215.91Z" fill="white"/>
<path d="M394.362 217.196C393.77 219.15 393.429 223.474 393.896 223.197C394.085 223.083 394.211 223.121 394.211 223.298C394.211 223.449 394.4 223.588 394.614 223.588C395.926 223.588 397.022 219.011 396.052 217.549C395.56 216.792 394.539 216.578 394.362 217.196Z" fill="white"/>
<path d="M400.124 217.801C399.67 218.646 399.884 220.902 400.515 222.138C401.082 223.235 401.385 223.235 401.939 222.163C402.318 221.445 402.33 221.066 402.066 219.806C401.813 218.608 400.981 217.107 400.565 217.107C400.527 217.107 400.326 217.435 400.124 217.801Z" fill="white"/>
<path d="M416.804 227.408C416.186 227.95 415.203 228.707 414.61 229.097C414.018 229.476 411.811 231.531 409.718 233.649C406.957 236.435 405.369 238.314 403.982 240.432C402.935 242.033 402.066 243.508 402.066 243.697C402.066 243.886 401.889 244.176 401.649 244.378C401.41 244.58 401.233 244.895 401.233 245.134C401.233 245.361 400.994 245.891 400.704 246.294C399.746 247.656 397.716 253.758 398.044 254.287C398.308 254.716 400.124 254.313 402.103 253.392C404.184 252.421 406.264 250.934 407.348 249.635C407.726 249.181 408.18 248.664 408.331 248.488C409.012 247.744 412.53 240.974 413.538 238.452C413.753 237.923 414.295 236.675 414.749 235.653C415.203 234.632 415.833 233.195 416.136 232.413C416.451 231.631 416.804 230.888 416.93 230.724C417.056 230.572 417.535 229.539 418.014 228.417C418.758 226.651 418.808 226.387 418.392 226.399C418.153 226.412 417.422 226.866 416.804 227.408Z" fill="white"/>
<path d="M487.873 189.005C486.083 189.522 484.734 190.152 483.7 190.959C482.363 191.993 480.409 194.124 480.56 194.376C480.661 194.54 480.624 194.641 480.46 194.641C480.22 194.641 479.766 195.549 479.728 196.116C479.716 196.229 479.628 196.381 479.514 196.507C479.401 196.62 479.312 197.389 479.312 198.221C479.312 199.583 479.388 199.759 480.031 200.012C482.237 200.856 487.205 197.805 489.487 194.2C490.319 192.888 491.605 189.333 491.441 188.829C491.29 188.35 489.852 188.425 487.873 189.005Z" fill="white"/>
<path d="M467.36 193.645C467.045 193.872 466.919 194.174 467.02 194.477C467.121 194.742 467.096 194.943 466.957 194.943C466.831 194.943 466.629 195.775 466.516 196.759C466.402 197.742 466.226 198.587 466.125 198.6C464.145 198.814 463.578 198.776 463.54 198.423C463.515 198.209 463.477 197.931 463.452 197.818C463.427 197.704 463.301 196.898 463.187 196.015C462.96 194.3 462.33 193.393 461.876 194.111C461.523 194.679 461.548 195.372 462.015 197.326C462.242 198.259 462.33 199.091 462.229 199.205C462.128 199.306 461.41 199.596 460.64 199.86C459.859 200.125 458.976 200.491 458.648 200.705C458.094 201.058 458.005 200.97 457.035 198.99C456.253 197.414 455.862 196.91 455.434 196.91C455.118 196.91 454.791 197.112 454.702 197.364C454.564 197.742 454.866 198.322 456.581 201.058C456.946 201.625 456.883 201.751 455.85 202.735C454.16 204.323 452.08 207.009 452.08 207.589C452.08 207.866 451.765 208.307 451.386 208.56C450.227 209.329 450.504 209.959 452.433 210.968C458.901 214.359 461.372 215.116 465.381 214.926C465.91 214.901 466.087 214.788 465.948 214.548C465.772 214.271 465.81 214.271 466.137 214.523C466.642 214.939 468.571 214.624 470.689 213.792C475.555 211.863 478.178 209.442 477.762 207.274C477.522 206.013 476.476 203.996 475.58 203.05C475.202 202.647 474.874 202.18 474.874 202.029C474.874 201.878 475.404 201.462 476.047 201.108C477.219 200.453 477.673 199.646 477.144 199.116C476.829 198.801 475.618 199.369 474.332 200.453C473.5 201.159 473.45 201.159 472.769 200.667C472.366 200.377 472.063 200.075 472.063 199.961C472.063 199.848 472.681 198.927 473.462 197.894C474.95 195.914 475.19 195.082 474.383 194.779C473.815 194.565 471.836 196.696 471.029 198.373C470.676 199.116 470.374 199.419 470.084 199.306C469.844 199.217 469.277 199.079 468.798 199.003C467.94 198.852 467.94 198.852 468.155 197.541C468.445 195.75 468.445 193.632 468.155 193.456C467.978 193.342 467.625 193.456 467.36 193.645ZM467.537 201.146C467.764 201.298 467.65 201.6 467.159 202.193C466.314 203.201 465.633 203.05 465.078 201.739L464.7 200.831L465.961 200.882C466.654 200.907 467.36 201.02 467.537 201.146ZM463.691 201.852C463.792 202.256 463.843 202.609 463.792 202.634C463.742 202.659 463.301 202.962 462.759 203.327L461.813 203.983L461.233 203.403C460.729 202.899 460.703 202.773 461.057 202.344C461.397 201.915 462.834 201.146 463.313 201.121C463.414 201.121 463.591 201.449 463.691 201.852ZM469.642 202.319C470.487 203.302 471.143 204.626 470.916 204.916C470.802 205.067 470.21 205.206 469.567 205.231C468.583 205.282 468.369 205.181 468.079 204.563C467.802 203.97 467.827 203.718 468.18 203.189C468.419 202.836 468.621 202.331 468.621 202.104C468.634 201.499 468.999 201.575 469.642 202.319ZM472.92 202.747C474.307 203.857 475.303 205.092 475.517 205.988C475.618 206.391 475.807 206.807 475.946 206.883C476.35 207.135 476.223 207.967 475.694 208.597C475.026 209.404 471.458 211.775 470.916 211.775C470.6 211.775 470.588 211.699 470.853 211.371C471.37 210.753 472.277 208.08 472.277 207.198C472.277 206.769 472.391 206.416 472.517 206.416C472.794 206.416 472.139 203.264 471.697 202.432C471.294 201.714 471.773 201.827 472.92 202.747ZM458.321 203.58C458.22 203.844 458.018 204.223 457.854 204.437C457.4 205.029 457.4 207.866 457.854 209.228C458.434 210.942 459.531 212.367 460.124 212.191C460.502 212.077 460.514 212.102 460.212 212.304C459.947 212.481 459.418 212.43 458.573 212.14C457.186 211.661 452.294 209.001 452.799 208.988C452.975 208.988 453.303 208.585 453.542 208.08C454.021 207.072 455.522 205.408 457.236 204.008C458.56 202.937 458.56 202.937 458.321 203.58ZM460.678 204.941C461.662 206.088 461.523 206.58 460.187 206.656C459.228 206.719 459.065 206.643 459.178 206.227C459.254 205.95 459.405 205.382 459.518 204.954C459.758 204.033 459.897 204.033 460.678 204.941ZM470.512 206.643C471.092 206.795 471.13 206.921 470.966 207.828C470.727 209.14 470.033 210.526 469.768 210.211C468.445 208.635 468.142 207.967 468.394 207.248C468.684 206.429 469.201 206.29 470.512 206.643ZM462.128 208.307C462.317 208.635 462.191 209.051 461.662 209.858L460.943 210.955L460.199 210.173C459.455 209.392 459.203 208.408 459.657 208.131C460.287 207.74 461.863 207.854 462.128 208.307ZM463.855 209.858C463.855 210.009 463.981 210.047 464.133 209.946C464.297 209.846 464.41 210.148 464.41 210.703C464.41 211.207 464.486 211.938 464.587 212.279C464.763 212.947 464.763 212.947 461.952 211.913C461.674 211.812 461.763 211.535 462.305 210.842C462.695 210.337 463.023 209.757 463.023 209.581C463.023 209.392 463.2 209.329 463.439 209.417C463.679 209.53 463.855 209.707 463.855 209.858ZM468.142 210.287C468.672 211.031 468.798 211.434 468.583 211.674C468.23 212.102 466.39 212.733 466.163 212.506C466.074 212.418 465.948 211.8 465.885 211.132C465.784 210.06 465.847 209.883 466.402 209.606C467.36 209.165 467.36 209.165 468.142 210.287Z" fill="white"/>
<path d="M447.819 200.579C447.793 200.642 447.743 200.982 447.705 201.323C447.617 202.193 449.836 204.286 450.718 204.159C452.244 203.945 450.617 201.02 448.764 200.655C448.26 200.554 447.844 200.516 447.819 200.579Z" fill="white"/>
<path d="M479.186 203.794C478.064 204.929 480.334 206.416 482.679 206.101C483.75 205.962 484.935 205.042 484.343 204.828C484.179 204.765 484.128 204.639 484.204 204.5C484.28 204.374 483.914 204.071 483.372 203.819C482.149 203.227 479.754 203.214 479.186 203.794Z" fill="white"/>
<path d="M445.688 206.668C444.515 206.794 444.087 207.324 444.604 208.017C444.818 208.307 445.095 208.56 445.221 208.585C445.347 208.597 445.65 208.698 445.915 208.812C446.167 208.925 446.936 208.976 447.604 208.938C448.676 208.862 448.827 208.774 448.915 208.118C448.991 207.526 448.852 207.324 448.209 207.084C446.999 206.618 446.659 206.568 445.688 206.668Z" fill="white"/>
<path d="M446.873 212.153C445.537 212.909 445.146 214.044 446.23 214.019C447.377 214.006 449.382 212.846 449.483 212.128C449.558 211.585 449.458 211.485 448.789 211.497C448.348 211.51 447.478 211.812 446.873 212.153Z" fill="white"/>
<path d="M477.787 211.989C477.068 212.707 478.379 214.699 479.791 215.052C480.649 215.267 481.393 214.586 481.153 213.817C480.813 212.745 478.354 211.421 477.787 211.989Z" fill="white"/>
<path d="M451.223 214.826C450.1 215.897 449.811 216.364 449.811 217.082C449.811 218.204 450.39 218.469 451.412 217.814C452.584 217.057 454.311 215.065 454.16 214.649C454.084 214.435 454.021 214.132 454.021 213.943C454.021 213.767 453.706 213.577 453.328 213.54C452.849 213.489 452.219 213.88 451.223 214.826Z" fill="white"/>
<path d="M473.45 215.342C473.135 215.91 473.588 217.738 474.131 218.053C474.345 218.179 474.534 218.444 474.534 218.633C474.534 219.011 475.82 219.755 476.438 219.742C477.245 219.717 477.346 219.616 477.346 218.961C477.346 218.028 476.009 215.897 475.076 215.342C474.093 214.762 473.778 214.762 473.45 215.342Z" fill="white"/>
<path d="M457.11 216.792C456.064 218.393 455.976 221.041 456.972 221.041C457.526 221.041 458.951 218.772 459.191 217.511C459.544 215.607 458.195 215.141 457.11 216.792Z" fill="white"/>
<path d="M468.508 217.297C467.36 218.444 468.457 223.701 469.794 223.5C470.865 223.336 470.953 222.97 470.588 220.184C470.399 218.747 470.121 217.385 469.957 217.196C469.592 216.717 469.037 216.767 468.508 217.297Z" fill="white"/>
<path d="M463.086 217.751C462.216 218.873 461.889 221.646 462.557 222.327C463.465 223.247 464.095 222.491 464.549 219.919C464.851 218.179 463.881 216.729 463.086 217.751Z" fill="white"/>
<path d="M445.612 226.45C445.612 226.626 445.915 227.408 446.28 228.19C448.045 231.984 448.688 233.397 448.688 233.535C448.688 233.623 449.168 234.72 449.773 236.006C450.378 237.292 450.945 238.603 451.059 238.956C451.412 240.091 454.286 245.752 455.333 247.404C456.543 249.307 459.506 252.22 460.237 252.22C460.527 252.22 460.767 252.333 460.767 252.459C460.767 252.598 461.649 253.102 462.746 253.594C464.612 254.439 466.011 254.628 466.402 254.086C466.629 253.77 464.65 247.883 463.78 246.307C463.402 245.613 462.506 243.974 461.788 242.663C461.069 241.352 459.972 239.587 459.342 238.73C457.892 236.775 450.945 229.74 450.466 229.74C450.277 229.74 450.075 229.639 450.025 229.526C449.974 229.413 449.243 228.757 448.398 228.051C447.541 227.357 446.696 226.639 446.482 226.437C446.041 226.021 445.612 226.021 445.612 226.45Z" fill="white"/>
</g>
<path d="M563.864 486.389C563.674 486.616 563.422 487.687 563.271 488.784C563.132 489.881 562.956 490.877 562.893 490.991C562.603 491.47 561.582 500.862 561.191 506.611C560.964 510.003 560.636 514.252 560.472 516.029C559.804 523.14 559.791 522.711 560.724 525.208C561.191 526.468 561.695 527.742 561.846 528.019C562.401 529.066 563.788 532.205 564.002 532.886C564.128 533.264 564.784 534.789 565.465 536.252C566.146 537.727 567.028 539.681 567.419 540.614C567.81 541.547 568.289 542.669 568.503 543.136C568.705 543.602 569.323 544.989 569.852 546.224C570.394 547.473 571.516 549.919 572.374 551.709C574.378 555.907 577.089 561.82 577.908 563.774C578.261 564.632 578.678 565.476 578.829 565.678C579.283 566.271 580.997 570.305 580.871 570.494C580.808 570.595 578.879 570.708 576.585 570.734C572.096 570.797 568.692 571.377 567.936 572.196C567.558 572.612 567.104 576.558 567.179 578.727C567.192 578.992 567.053 579.219 566.864 579.231C566.688 579.244 566.209 579.319 565.83 579.382C565.452 579.446 564.254 579.635 563.183 579.799C559.627 580.328 559.842 580.013 558.682 586.405C557.862 590.931 557.812 591.801 558.367 592.583C558.77 593.15 558.846 593.163 586.242 593.049C616.727 592.936 623.195 592.822 637.593 592.217C639.887 592.116 642.207 592.053 642.699 592.078C644.061 592.141 644.3 591.473 643.897 588.826C643.708 587.628 643.518 586.266 643.481 585.775C643.304 583.934 642.447 580.177 642.069 579.572C641.69 578.979 641.463 578.929 639.03 578.929C637.164 578.929 636.307 578.815 636.093 578.55C635.916 578.349 635.79 577.189 635.79 575.953C635.79 574.718 635.689 573.293 635.563 572.738C635.361 571.856 635.235 571.742 634.365 571.73C633.836 571.717 632.499 571.566 631.428 571.377C630.344 571.188 628.238 570.973 626.738 570.885L624.014 570.721L624.191 569.977C624.279 569.574 624.468 568.931 624.594 568.59C624.721 568.237 624.746 567.947 624.657 567.947C624.569 567.947 624.632 567.783 624.784 567.594C625.2 567.09 625.969 563.976 625.754 563.636C625.666 563.497 625.754 563.472 625.931 563.585C626.158 563.724 626.259 563.661 626.208 563.421C626.133 563.03 627.368 558.895 628.225 556.714C628.49 556.021 628.793 555.05 628.906 554.533C629.007 554.029 629.272 553.272 629.499 552.843C629.688 552.44 629.864 551.898 629.864 551.621C629.864 551.356 630.117 550.498 630.432 549.717C630.734 548.935 630.923 548.305 630.835 548.305C630.747 548.305 630.86 548.04 631.113 547.687C631.365 547.334 631.554 546.842 631.554 546.552C631.554 546.262 632.361 543.867 633.344 541.219C635.324 535.899 635.714 534.008 635.097 532.823C634.554 531.789 632.789 525.624 631.642 520.782C631.403 519.799 630.974 518.223 630.684 517.34C630.394 516.458 630.167 515.5 630.167 515.235C630.167 514.97 629.965 514.189 629.713 513.495C628.969 511.465 628.969 511.427 628.868 510.419C628.818 509.902 628.465 508.402 628.087 507.065C627.709 505.729 627.305 504.153 627.204 503.548C627.002 502.35 626.032 500.85 625.464 500.85C625.25 500.85 624.758 501.077 624.33 501.367C623.914 501.657 622.665 502.489 621.569 503.207C620.472 503.939 619.274 504.808 618.896 505.149C618.518 505.489 617.648 506.221 616.954 506.775C616.261 507.343 615.378 508.061 614.987 508.402C614.597 508.742 613.651 509.549 612.907 510.192C612.151 510.835 610.638 512.209 609.541 513.23C608.444 514.252 607.284 515.323 606.944 515.613C606.591 515.928 606.276 516.584 606.187 517.252C606.099 517.87 605.784 519.698 605.481 521.337C605.179 522.963 604.712 525.46 604.435 526.897C604.158 528.347 603.842 529.406 603.729 529.28C603.615 529.154 603.25 527.527 602.935 525.687C601.333 516.357 600.905 514.403 599.493 510.091C598.862 508.162 598.257 506.46 598.156 506.309C598.055 506.158 597.816 505.489 597.627 504.846C597.211 503.422 596.505 502.854 592.672 500.837C591.121 500.018 589.016 498.883 587.969 498.29C586.923 497.698 586.066 497.294 586.066 497.383C586.066 497.471 585.839 497.345 585.574 497.118C585.297 496.878 582.561 495.403 579.459 493.802C572.147 490.083 567.482 487.561 566.183 486.679C564.998 485.872 564.355 485.796 563.864 486.389ZM565.112 490.877C565.591 494.243 568.491 506.561 569.209 508.288C569.335 508.603 569.777 509.99 570.193 511.377C570.609 512.764 571.226 514.857 571.579 516.017C571.932 517.164 572.374 518.765 572.563 519.534C572.752 520.316 572.966 521.148 573.042 521.387C573.155 521.778 572.865 521.841 570.974 521.867C569.751 521.879 567.217 522.018 565.288 522.182C562.023 522.459 561.166 522.396 561.456 521.942C561.556 521.778 561.834 519.698 562.288 515.739C562.351 515.197 562.477 513.041 562.578 510.948C562.678 508.868 562.805 506.712 562.868 506.17C562.931 505.628 563.082 503.485 563.183 501.392C563.422 496.626 563.46 496.235 563.7 494.521C563.813 493.777 563.952 492.756 564.002 492.302C564.469 488.419 564.721 488.103 565.112 490.877ZM570.533 490.65C572.033 491.52 573.95 492.604 574.794 493.058C575.652 493.512 576.459 493.966 576.622 494.092C576.786 494.205 578.173 494.975 579.724 495.794C581.275 496.614 582.662 497.37 582.813 497.496C582.964 497.61 583.847 498.114 584.78 498.606C585.713 499.097 586.961 499.778 587.591 500.131C588.209 500.471 589.848 501.367 591.247 502.11C592.634 502.854 593.933 503.611 594.122 503.787C594.399 504.039 594.008 504.682 592.344 506.775C591.172 508.25 589.772 510.154 589.23 511.049C588.688 511.932 588.209 512.663 588.158 512.663C588.121 512.663 587.843 512.285 587.553 511.831C586.948 510.885 582.662 506.221 577.505 500.888C572.109 495.328 572.008 495.214 572.008 495.025C572.008 494.924 571.706 494.521 571.34 494.117C570.445 493.159 567.457 489.062 567.646 489.062C567.734 489.062 569.045 489.78 570.533 490.65ZM568.037 492.113C569.726 494.622 569.865 494.811 570.747 495.832C571.214 496.361 574.101 499.362 577.202 502.514C580.304 505.666 583.128 508.566 583.519 508.956C584.843 510.318 586.91 513.167 586.91 513.609C586.91 513.848 586.507 514.239 586.003 514.504C583.494 515.802 576.585 520.467 575.299 521.741C575.034 522.005 574.757 522.194 574.706 522.144C574.555 521.955 573.181 516.987 572.601 514.605C572.285 513.293 571.756 511.352 571.428 510.268C570.079 505.855 568.831 501.102 568.049 497.345C567.848 496.412 567.52 494.975 567.293 494.105C566.41 490.701 566.183 489.049 566.726 490.058C566.902 490.36 567.482 491.281 568.037 492.113ZM624.141 503.8C623.825 504.607 622.817 511.427 622.703 513.483C622.64 514.642 622.514 519.887 622.426 525.132C622.338 530.377 622.224 534.714 622.174 534.764C622.123 534.815 621.127 533.44 619.967 531.701C617.181 527.553 615.794 525.561 615.177 524.88C614.912 524.59 614.697 524.212 614.697 524.035C614.697 523.871 614.534 523.556 614.344 523.367C614.168 523.178 613.991 522.913 613.979 522.825C613.966 522.724 613.512 521.942 612.958 521.085C612.403 520.228 611.672 518.967 611.331 518.273C610.978 517.58 610.461 516.748 610.171 516.433C609.642 515.84 609.642 515.84 611.533 514.05C613.386 512.297 617.181 509.032 620.308 506.485C621.165 505.792 622.3 504.821 622.855 504.304C623.901 503.321 624.393 503.132 624.141 503.8ZM625.931 505.489C626.07 505.804 626.233 506.296 626.322 506.611C626.397 506.927 626.662 507.872 626.902 508.729C627.141 509.587 627.406 510.835 627.507 511.528C627.608 512.209 628.062 513.924 628.515 515.311C629.259 517.567 630.217 521.514 631.05 525.737C631.201 526.506 631.642 528.435 632.02 530.049C632.777 533.176 632.752 533.264 631.264 533.617C630.306 533.844 627.784 534.689 625.943 535.42C623.195 536.504 623.384 536.655 623.548 533.554C623.838 527.88 623.977 524.426 624.128 518.841C624.216 515.689 624.33 513.029 624.405 512.928C624.468 512.827 624.594 511.755 624.67 510.52C624.947 506.296 625.401 503.308 625.59 504.367C625.641 504.682 625.792 505.162 625.931 505.489ZM596.87 508.54C598.774 514.655 599.795 519.32 602.619 534.852C602.796 535.798 602.645 537.361 602.002 541.169C601.535 543.955 601.094 546.414 601.018 546.653C600.791 547.359 595.9 535.773 593.895 529.772C593.769 529.393 593.391 528.385 593.05 527.527C592.243 525.472 591.121 522.257 590.831 521.211C590.705 520.757 590.15 519.017 589.583 517.366L588.562 514.34L589.192 513.369C589.533 512.84 590.819 510.961 592.042 509.221C593.265 507.481 594.513 505.641 594.815 505.124C595.118 504.619 595.408 504.241 595.458 504.292C595.534 504.342 596.152 506.258 596.87 508.54ZM587.465 515.248C587.465 515.853 591.462 528.196 592.218 529.935C592.357 530.238 592.987 531.953 593.63 533.718C594.273 535.483 594.891 537.071 595.004 537.223C595.118 537.374 595.446 538.143 595.736 538.925C596.795 541.837 599.934 548.343 600.438 548.645C600.665 548.784 600.653 549.515 600.4 551.23L600.035 553.613L597.765 551.974C596.505 551.066 594.954 550.07 594.286 549.742C593.618 549.414 593.012 549.036 592.924 548.885C592.823 548.721 592.659 548.683 592.495 548.784C592.344 548.872 592.231 548.822 592.231 548.658C592.231 548.506 591.336 547.914 590.264 547.347C588.524 546.439 588.221 546.149 587.604 544.875C586.57 542.707 584.603 539.139 583.481 537.387C582.939 536.529 582.409 535.647 582.296 535.42C582.195 535.193 581.464 534.046 580.707 532.898C579.938 531.751 578.955 530.175 578.526 529.444C578.11 528.713 577.076 527.074 576.282 525.851C575.475 524.615 574.807 523.493 574.807 523.379C574.807 523.266 575.16 523.014 575.589 522.812C576.005 522.623 577.19 521.917 578.186 521.274C579.169 520.631 580.896 519.522 581.968 518.853C583.04 518.185 584.641 517.076 585.486 516.407C586.822 515.348 587.465 514.983 587.465 515.248ZM609.944 519.421C610.398 520.316 611.344 521.93 612.037 523.001C612.731 524.073 613.311 525.018 613.311 525.107C613.311 525.195 613.777 525.939 614.357 526.796C614.924 527.641 616.311 529.671 617.433 531.297C618.555 532.923 619.98 535.218 620.61 536.378L621.758 538.496L619.577 541.787C614.584 549.326 613.601 551.028 609.894 558.454C608.116 562.022 607.587 563.27 605.809 568.137L605.09 570.116H602.859H600.627L600.804 567.998C600.905 566.838 601.094 564.808 601.245 563.497C601.396 562.173 601.636 559.916 601.775 558.441C601.926 556.979 602.292 554.256 602.594 552.415C602.897 550.574 603.199 548.532 603.275 547.927C603.426 546.641 603.918 543.564 604.309 541.32C604.637 539.442 607.398 522.648 607.536 521.665C607.587 521.287 607.801 520.114 608.003 519.068C608.431 516.836 608.658 516.874 609.944 519.421ZM573.294 523.543C573.458 523.657 574.265 525.006 575.084 526.557C576.597 529.393 579.333 534.008 580.72 536.075C582.535 538.773 585.889 544.56 586.734 546.426C587.629 548.393 587.667 548.645 587.995 554.205C588.184 557.357 588.524 561.732 588.776 563.888C589.016 566.056 589.281 568.414 589.356 569.158L589.495 570.494H586.444H583.393L582.712 568.893C581.968 567.141 579.888 562.69 577.429 557.584C576.572 555.794 575.374 553.285 574.757 551.974C574.151 550.662 573.319 548.897 572.916 548.04C572.512 547.183 572.172 546.426 572.159 546.351C572.147 546.275 571.605 545.102 570.962 543.741C570.319 542.379 569.789 541.207 569.789 541.118C569.789 541.043 569.272 539.933 568.642 538.673C568.011 537.412 567.507 536.34 567.507 536.302C567.532 536.239 566.499 533.982 564.317 529.356C562.275 525.018 562.061 524.401 562.452 524.161C562.641 524.048 563.574 523.922 564.532 523.884C565.49 523.846 567.343 523.72 568.654 523.606C571.983 523.329 572.954 523.304 573.294 523.543ZM633.231 535.281C633.231 535.584 631.44 540.097 630.57 541.988C629.814 543.653 629.335 544.825 629.146 545.518C629.121 545.594 629.032 545.821 628.919 546.061C628.818 546.288 628.15 548.191 627.431 550.272C626.713 552.352 626.019 554.293 625.868 554.583C625.717 554.861 625.427 555.68 625.225 556.399C625.023 557.117 624.506 558.794 624.09 560.105C623.674 561.417 623.157 563.257 622.955 564.19C622.426 566.548 622.111 567.62 621.48 569.221L620.926 570.633L618.152 570.545C616.626 570.494 615.353 570.418 615.315 570.381C615.277 570.343 615.214 566.157 615.164 561.076L615.088 551.835L615.92 550.284C616.374 549.427 617.585 547.422 618.631 545.796C619.677 544.169 621.001 541.976 621.619 540.879C622.792 538.761 623.271 538.408 626.347 537.399C627.267 537.097 628.994 536.466 630.142 536.012C632.184 535.205 633.231 534.966 633.231 535.281ZM594.84 552.44C596.959 553.701 598.963 554.835 599.266 554.924C599.619 555.037 599.783 555.277 599.707 555.567C599.644 555.831 599.505 556.853 599.404 557.861C599.304 558.883 599.114 560.383 598.976 561.24C598.698 563.03 598.484 564.72 598.27 566.825C598.181 567.683 598.055 568.779 597.967 569.284L597.816 570.192L595.231 570.217C593.819 570.229 592.306 570.267 591.878 570.292C591.184 570.343 591.096 570.255 591.058 569.498C591.033 569.044 590.995 568.326 590.97 567.947C590.945 567.557 590.831 566.17 590.718 564.859C590.478 561.997 589.987 556.676 589.823 555.315C589.76 554.772 589.634 553.209 589.545 551.873L589.381 549.427L590.176 549.767C590.617 549.969 592.722 551.167 594.84 552.44ZM613.777 562.287L613.84 570.368L610.31 570.318C608.356 570.292 606.729 570.204 606.654 570.141C606.591 570.078 607.045 568.792 607.675 567.267C608.305 565.741 608.81 564.405 608.81 564.266C608.81 564.026 613.512 554.205 613.626 554.205C613.664 554.218 613.739 557.849 613.777 562.287ZM629.297 585.472C630.986 585.661 634.693 586.001 636.168 586.102C636.95 586.153 637.681 586.203 637.795 586.216C637.908 586.228 638.009 586.67 638.009 587.199V588.17L635.412 588.195C630.28 588.246 629.65 588.233 624.796 588.044C622.098 587.93 619.829 587.804 619.766 587.741C619.703 587.678 619.501 587.767 619.287 587.943C619.072 588.12 618.908 588.145 618.896 588.006C618.883 587.741 617.572 587.704 604.006 587.666C594.248 587.628 582.977 587.804 578.299 588.057C573.962 588.283 570.306 588.447 566.297 588.586L562.452 588.712L562.628 587.968C562.855 587.01 562.767 587.061 564.242 586.985C564.935 586.947 565.528 586.846 565.54 586.758C565.553 586.518 565.666 586.518 573.42 586.392C577.354 586.329 582.082 586.191 583.935 586.077C588.89 585.787 589.545 585.749 595.887 585.522C599.039 585.409 601.686 585.27 601.749 585.22C601.901 585.081 627.935 585.321 629.297 585.472Z" fill="white"/>
<g clip-path="url(#clip1_1_281)">
<path d="M600.7 446.078C600.7 446.15 600.608 446.854 600.49 447.656C600.372 448.458 600.24 449.436 600.181 449.833C600.128 450.231 599.964 451.379 599.813 452.37C599.662 453.367 599.504 454.802 599.451 455.565C599.366 456.882 598.985 459.94 598.86 460.311C598.82 460.429 598.301 460.181 597.44 459.633C596.691 459.157 595.1 458.212 593.884 457.508C592.668 456.81 591.156 455.93 590.505 455.545C588.862 454.58 588.553 454.613 589.499 455.649C590.255 456.477 595.054 462.241 595.106 462.385C595.133 462.456 594.811 462.554 594.377 462.606C593.949 462.658 593.24 462.763 592.793 462.834C592.346 462.906 590.899 463.134 589.572 463.336C583.452 464.282 581.901 464.608 581.999 464.914C582.098 465.214 584.898 465.625 589.052 465.951C589.624 465.997 590.972 466.127 592.056 466.238C593.141 466.349 594.344 466.46 594.732 466.473C595.119 466.486 595.474 466.557 595.514 466.623C595.58 466.727 592.687 470.346 590.032 473.469C588.191 475.64 588.632 475.483 594.318 471.949C595.935 470.945 598.682 469.348 598.794 469.348C598.879 469.348 598.932 469.394 598.932 469.465C598.932 469.531 599.031 470.339 599.149 471.252C599.267 472.165 599.399 473.443 599.438 474.082C599.543 475.685 599.655 476.611 599.951 478.359C600.023 478.802 600.122 479.506 600.174 479.937C600.51 483.034 600.845 484.435 601.042 483.575C601.2 482.916 601.989 477.113 602.14 475.522C602.593 470.821 602.797 469.354 602.988 469.354C603.073 469.354 605.959 471.063 608.884 472.843C612.9 475.288 612.69 475.183 612.69 474.799C612.69 474.681 612.394 474.258 612.019 473.847C611.651 473.436 610.869 472.504 610.278 471.773C609.686 471.043 608.503 469.596 607.648 468.559C606.202 466.805 606.117 466.662 606.426 466.583C606.61 466.531 608.049 466.381 609.614 466.251C611.178 466.121 612.992 465.944 613.636 465.873C614.281 465.795 615.234 465.703 615.753 465.658C617.456 465.521 619.309 465.221 619.671 465.025C619.901 464.901 619.855 464.843 619.349 464.634C619.027 464.504 618.402 464.341 617.955 464.275C617.508 464.21 616.562 464.06 615.839 463.93C614.32 463.669 610.764 463.108 608.292 462.743C607.359 462.606 606.583 462.476 606.564 462.456C606.537 462.437 607.852 460.846 609.489 458.909C611.125 456.973 612.519 455.31 612.598 455.199C612.815 454.893 612.558 454.75 612.197 454.978C611.691 455.297 609.489 456.556 608.457 457.116C607.944 457.397 607.287 457.768 607.03 457.938C606.767 458.101 606.13 458.499 605.63 458.812C605.131 459.118 604.368 459.6 603.967 459.861C603.56 460.122 603.152 460.344 603.067 460.344C602.817 460.344 602.429 457.853 602.219 454.978C602.054 452.722 601.049 446.071 600.865 446.006C600.786 445.98 600.7 446.013 600.7 446.078Z" fill="white"/>
</g>
<g clip-path="url(#clip2_1_281)">
<path d="M1189.87 48.1513C1189.87 48.29 1189.69 49.6516 1189.46 51.2023C1189.24 52.753 1188.99 54.6442 1188.87 55.4133C1188.77 56.1823 1188.46 58.4013 1188.17 60.3176C1187.88 62.2466 1187.57 65.0202 1187.47 66.4953C1187.31 69.0421 1186.58 74.955 1186.34 75.6737C1186.26 75.9006 1185.27 75.4215 1183.61 74.3625C1182.18 73.4421 1179.13 71.614 1176.79 70.2524C1174.46 68.9034 1171.56 67.2014 1170.31 66.4575C1167.16 64.5916 1166.57 64.6546 1168.39 66.6592C1169.83 68.2604 1179.04 79.4055 1179.14 79.6829C1179.19 79.8216 1178.57 80.0107 1177.74 80.1116C1176.92 80.2124 1175.56 80.4141 1174.7 80.5528C1173.84 80.6915 1171.07 81.1328 1168.52 81.5236C1156.79 83.3517 1153.81 83.9821 1154 84.5747C1154.19 85.1546 1159.56 85.9489 1167.53 86.5793C1168.62 86.6675 1171.21 86.9197 1173.29 87.134C1175.37 87.3483 1177.68 87.5627 1178.42 87.5879C1179.16 87.6131 1179.85 87.7518 1179.92 87.8778C1180.05 88.0796 1174.5 95.0768 1169.41 101.116C1165.88 105.314 1166.72 105.012 1177.63 98.1783C1180.73 96.2367 1186 93.1478 1186.21 93.1478C1186.38 93.1478 1186.48 93.2361 1186.48 93.3748C1186.48 93.5008 1186.67 95.0642 1186.89 96.8292C1187.12 98.5943 1187.37 101.065 1187.45 102.301C1187.65 105.402 1187.86 107.193 1188.43 110.572C1188.57 111.429 1188.76 112.79 1188.86 113.623C1189.5 119.611 1190.15 122.322 1190.52 120.658C1190.83 119.384 1192.34 108.163 1192.63 105.087C1193.5 95.9971 1193.89 93.1604 1194.26 93.1604C1194.42 93.1604 1199.95 96.4636 1205.56 99.9055C1213.27 104.633 1212.86 104.432 1212.86 103.688C1212.86 103.461 1212.3 102.641 1211.58 101.847C1210.87 101.053 1209.37 99.2499 1208.24 97.8379C1207.1 96.4258 1204.83 93.6269 1203.19 91.6223C1200.42 88.2309 1200.26 87.9535 1200.85 87.8022C1201.2 87.7013 1203.96 87.4114 1206.96 87.1592C1209.96 86.9071 1213.44 86.5667 1214.68 86.428C1215.92 86.2767 1217.74 86.1002 1218.74 86.0119C1222.01 85.7472 1225.56 85.1672 1226.25 84.789C1226.7 84.5494 1226.61 84.436 1225.64 84.0325C1225.02 83.7804 1223.82 83.4652 1222.96 83.3391C1222.11 83.213 1220.29 82.9231 1218.9 82.6709C1215.99 82.1666 1209.17 81.0823 1204.43 80.3763C1202.64 80.1116 1201.15 79.8594 1201.11 79.8216C1201.06 79.7838 1203.59 76.7075 1206.72 72.963C1209.86 69.2186 1212.54 66.0036 1212.69 65.7893C1213.1 65.1968 1212.61 64.9194 1211.92 65.3607C1210.95 65.9784 1206.72 68.4117 1204.75 69.496C1203.76 70.0381 1202.5 70.7567 1202.01 71.0845C1201.51 71.3997 1200.28 72.1688 1199.32 72.7739C1198.37 73.3665 1196.9 74.2995 1196.13 74.8038C1195.35 75.3081 1194.57 75.7367 1194.41 75.7367C1193.93 75.7367 1193.18 70.9206 1192.78 65.3607C1192.47 60.9984 1190.54 48.1387 1190.18 48.0126C1190.03 47.9622 1189.87 48.0252 1189.87 48.1513Z" fill="white"/>
</g>
<g clip-path="url(#clip3_1_281)">
<path d="M570.022 885.088C569.959 885.189 569.859 885.87 569.795 886.601C569.669 888.076 569.203 891.392 568.9 892.93C568.749 893.75 568.61 893.989 568.169 894.216C567.224 894.708 565.307 895.073 562.76 895.275C561.411 895.376 560.214 895.515 560.1 895.59C559.684 895.842 560.516 896.032 562.117 896.032C563.05 896.032 564.185 896.12 564.677 896.233C568.711 897.141 568.51 897.04 568.825 898.187C569.102 899.221 569.619 902.814 569.808 905.059C569.972 907.013 570.338 906.622 570.502 904.315C570.64 902.234 571.132 898.956 571.447 897.998C571.548 897.671 571.75 897.305 571.876 897.204C572.317 896.838 576.44 896.057 578.129 896.019C579.68 895.981 580.436 895.817 580.184 895.565C580.121 895.502 579.188 895.401 578.091 895.351C575.961 895.237 573.716 894.846 572.43 894.38C571.8 894.153 571.624 893.964 571.447 893.384C571.081 892.148 570.665 889.349 570.539 887.357C570.426 885.466 570.249 884.722 570.022 885.088Z" fill="white"/>
</g>
<g clip-path="url(#clip4_1_281)">
<path d="M138.022 885.088C137.959 885.189 137.859 885.87 137.795 886.601C137.669 888.076 137.203 891.392 136.9 892.93C136.749 893.75 136.61 893.989 136.169 894.216C135.224 894.708 133.307 895.073 130.76 895.275C129.411 895.376 128.214 895.515 128.1 895.59C127.684 895.842 128.516 896.032 130.117 896.032C131.05 896.032 132.185 896.12 132.677 896.233C136.711 897.141 136.51 897.04 136.825 898.187C137.102 899.221 137.619 902.814 137.808 905.059C137.972 907.013 138.338 906.622 138.502 904.315C138.64 902.234 139.132 898.956 139.447 897.998C139.548 897.671 139.75 897.305 139.876 897.204C140.317 896.838 144.44 896.057 146.129 896.019C147.68 895.981 148.436 895.817 148.184 895.565C148.121 895.502 147.188 895.401 146.091 895.351C143.961 895.237 141.716 894.846 140.43 894.38C139.8 894.153 139.624 893.964 139.447 893.384C139.081 892.148 138.665 889.349 138.539 887.357C138.426 885.466 138.249 884.722 138.022 885.088Z" fill="white"/>
</g>
<g clip-path="url(#clip5_1_281)">
<path d="M511.022 463.088C510.959 463.189 510.859 463.87 510.795 464.601C510.669 466.076 510.203 469.392 509.9 470.93C509.749 471.75 509.61 471.989 509.169 472.216C508.224 472.708 506.307 473.073 503.76 473.275C502.411 473.376 501.214 473.515 501.1 473.59C500.684 473.842 501.516 474.032 503.117 474.032C504.05 474.032 505.185 474.12 505.677 474.233C509.711 475.141 509.51 475.04 509.825 476.187C510.102 477.221 510.619 480.814 510.808 483.059C510.972 485.013 511.338 484.622 511.502 482.315C511.64 480.234 512.132 476.956 512.447 475.998C512.548 475.671 512.75 475.305 512.876 475.204C513.317 474.838 517.44 474.057 519.129 474.019C520.68 473.981 521.436 473.817 521.184 473.565C521.121 473.502 520.188 473.401 519.091 473.351C516.961 473.237 514.716 472.846 513.43 472.38C512.8 472.153 512.624 471.964 512.447 471.384C512.081 470.148 511.665 467.349 511.539 465.357C511.426 463.466 511.249 462.723 511.022 463.088Z" fill="white"/>
</g>
<g clip-path="url(#clip6_1_281)">
<path d="M13.9463 806.071C13.8832 806.172 13.7824 806.853 13.7193 807.584C13.5932 809.059 13.1268 812.375 12.8242 813.913C12.6729 814.732 12.5342 814.972 12.0929 815.199C11.1474 815.691 9.23101 816.056 6.68427 816.258C5.33526 816.359 4.13754 816.498 4.02407 816.573C3.60802 816.825 4.44012 817.014 6.04129 817.014C6.97425 817.014 8.10893 817.103 8.60063 817.216C12.6351 818.124 12.4333 818.023 12.7485 819.17C13.0259 820.204 13.5428 823.797 13.7319 826.041C13.8958 827.996 14.2614 827.605 14.4253 825.298C14.564 823.217 15.0557 819.939 15.3709 818.981C15.4718 818.653 15.6735 818.288 15.7996 818.187C16.2408 817.821 20.3635 817.04 22.053 817.002C23.6037 816.964 24.3601 816.8 24.108 816.548C24.045 816.485 23.112 816.384 22.0151 816.334C19.8844 816.22 17.6403 815.829 16.3543 815.363C15.7239 815.136 15.5474 814.947 15.3709 814.367C15.0053 813.131 14.5892 810.332 14.4632 808.34C14.3497 806.449 14.1732 805.705 13.9463 806.071Z" fill="white"/>
</g>
<g clip-path="url(#clip7_1_281)">
<path d="M1262.87 786.151C1262.87 786.29 1262.69 787.652 1262.46 789.202C1262.24 790.753 1261.99 792.644 1261.87 793.413C1261.77 794.182 1261.46 796.401 1261.17 798.318C1260.88 800.247 1260.57 803.02 1260.47 804.495C1260.31 807.042 1259.58 812.955 1259.34 813.674C1259.26 813.901 1258.27 813.422 1256.61 812.363C1255.18 811.442 1252.13 809.614 1249.79 808.252C1247.46 806.903 1244.56 805.201 1243.31 804.458C1240.16 802.592 1239.57 802.655 1241.39 804.659C1242.83 806.26 1252.04 817.406 1252.14 817.683C1252.19 817.822 1251.57 818.011 1250.74 818.112C1249.92 818.212 1248.56 818.414 1247.7 818.553C1246.84 818.692 1244.07 819.133 1241.52 819.524C1229.79 821.352 1226.81 821.982 1227 822.575C1227.19 823.155 1232.56 823.949 1240.53 824.579C1241.62 824.668 1244.21 824.92 1246.29 825.134C1248.37 825.348 1250.68 825.563 1251.42 825.588C1252.16 825.613 1252.85 825.752 1252.92 825.878C1253.05 826.08 1247.5 833.077 1242.41 839.116C1238.88 843.314 1239.72 843.012 1250.63 836.178C1253.73 834.237 1259 831.148 1259.21 831.148C1259.38 831.148 1259.48 831.236 1259.48 831.375C1259.48 831.501 1259.67 833.064 1259.89 834.829C1260.12 836.594 1260.37 839.065 1260.45 840.301C1260.65 843.402 1260.86 845.193 1261.43 848.572C1261.57 849.429 1261.76 850.79 1261.86 851.623C1262.5 857.611 1263.15 860.322 1263.52 858.658C1263.83 857.384 1265.34 846.164 1265.63 843.087C1266.5 833.997 1266.89 831.16 1267.26 831.16C1267.42 831.16 1272.95 834.464 1278.56 837.906C1286.27 842.633 1285.86 842.432 1285.86 841.688C1285.86 841.461 1285.3 840.641 1284.58 839.847C1283.87 839.053 1282.37 837.25 1281.24 835.838C1280.1 834.426 1277.83 831.627 1276.19 829.622C1273.42 826.231 1273.26 825.954 1273.85 825.802C1274.2 825.701 1276.96 825.411 1279.96 825.159C1282.96 824.907 1286.44 824.567 1287.68 824.428C1288.92 824.277 1290.74 824.1 1291.74 824.012C1295.01 823.747 1298.56 823.167 1299.25 822.789C1299.7 822.549 1299.61 822.436 1298.64 822.033C1298.02 821.78 1296.82 821.465 1295.96 821.339C1295.11 821.213 1293.29 820.923 1291.9 820.671C1288.99 820.167 1282.17 819.082 1277.43 818.376C1275.64 818.112 1274.15 817.859 1274.11 817.822C1274.06 817.784 1276.59 814.708 1279.72 810.963C1282.86 807.219 1285.54 804.004 1285.69 803.789C1286.1 803.197 1285.61 802.919 1284.92 803.361C1283.95 803.978 1279.72 806.412 1277.75 807.496C1276.76 808.038 1275.5 808.757 1275.01 809.085C1274.51 809.4 1273.28 810.169 1272.32 810.774C1271.37 811.367 1269.9 812.299 1269.13 812.804C1268.35 813.308 1267.57 813.737 1267.41 813.737C1266.93 813.737 1266.18 808.921 1265.78 803.361C1265.47 798.998 1263.54 786.139 1263.18 786.013C1263.03 785.962 1262.87 786.025 1262.87 786.151Z" fill="white"/>
</g>
<g clip-path="url(#clip8_1_281)">
<path d="M276.921 0.125069C276.921 0.239822 276.774 1.36649 276.585 2.64963C276.395 3.93278 276.185 5.49759 276.09 6.13395C276.006 6.77031 275.743 8.60635 275.501 10.192C275.26 11.7881 275.007 14.0832 274.923 15.3037C274.786 17.411 274.176 22.3037 273.976 22.8983C273.913 23.0861 273.082 22.6897 271.705 21.8134C270.506 21.0518 267.961 19.5392 266.015 18.4125C264.069 17.2963 261.65 15.8879 260.609 15.2725C257.98 13.7285 257.485 13.7807 259 15.4394C260.209 16.7642 267.887 25.9862 267.971 26.2157C268.013 26.3305 267.498 26.4869 266.804 26.5704C266.12 26.6539 264.984 26.8208 264.269 26.9355C263.554 27.0503 261.24 27.4154 259.115 27.7388C249.324 29.2514 246.842 29.7731 247 30.2634C247.157 30.7432 251.638 31.4005 258.285 31.9221C259.2 31.9951 261.356 32.2037 263.091 32.3811C264.826 32.5584 266.751 32.7358 267.372 32.7566C267.992 32.7775 268.56 32.8922 268.623 32.9966C268.728 33.1635 264.101 38.9533 259.852 43.9503C256.907 47.4241 257.611 47.1738 266.709 41.5196C269.296 39.913 273.692 37.3572 273.871 37.3572C274.008 37.3572 274.092 37.4302 274.092 37.545C274.092 37.6493 274.25 38.9428 274.439 40.4033C274.628 41.8638 274.839 43.9085 274.902 44.9309C275.07 47.4972 275.249 48.9785 275.722 51.7743C275.838 52.4837 275.996 53.6104 276.08 54.2989C276.616 59.2541 277.153 61.497 277.468 60.12C277.721 59.0663 278.983 49.7818 279.225 47.2364C279.95 39.7148 280.276 37.3676 280.581 37.3676C280.718 37.3676 285.335 40.1008 290.015 42.9488C296.441 46.8608 296.105 46.6939 296.105 46.0784C296.105 45.8906 295.632 45.2125 295.032 44.5553C294.443 43.8981 293.191 42.4063 292.245 41.2379C291.298 40.0695 289.405 37.7536 288.038 36.0949C285.724 33.2887 285.587 33.0592 286.082 32.934C286.376 32.8505 288.68 32.6106 291.183 32.4019C293.686 32.1933 296.589 31.9116 297.619 31.7969C298.65 31.6717 300.175 31.5256 301.006 31.4526C303.73 31.2335 306.696 30.7537 307.274 30.4407C307.642 30.2425 307.569 30.1486 306.759 29.8148C306.243 29.6061 305.244 29.3453 304.529 29.241C303.814 29.1367 302.299 28.8968 301.143 28.6881C298.713 28.2708 293.023 27.3737 289.069 26.7895C287.575 26.5704 286.334 26.3618 286.303 26.3305C286.261 26.2992 288.364 23.7537 290.983 20.6554C293.602 17.5571 295.831 14.8969 295.958 14.7196C296.305 14.2292 295.894 13.9997 295.316 14.3649C294.506 14.876 290.983 16.8894 289.332 17.7866C288.511 18.2352 287.46 18.8298 287.049 19.101C286.629 19.3618 285.609 19.9982 284.809 20.4989C284.01 20.9892 282.79 21.7612 282.148 22.1785C281.496 22.5958 280.844 22.9505 280.707 22.9505C280.308 22.9505 279.687 18.9654 279.351 14.3649C279.088 10.7554 277.479 0.114637 277.184 0.0103157C277.058 -0.0314126 276.921 0.0207478 276.921 0.125069Z" fill="white"/>
</g>
<g clip-path="url(#clip9_1_281)">
<path d="M436.211 892.229C441.009 894.914 446.26 896.806 448.916 896.822C449.413 896.825 449.928 896.889 450.03 896.963C450.652 897.416 458.076 897.054 463.22 896.309C468.178 895.585 473.888 893.786 478.842 891.375C480.1 890.763 481.295 890.214 481.483 890.148C481.749 890.062 486.407 887.48 488.513 886.238C489.363 885.735 492.346 883.525 492.641 883.163C492.793 882.977 493.052 882.791 493.213 882.721C493.383 882.658 493.924 882.194 494.424 881.701C494.924 881.207 495.526 880.616 495.756 880.409C495.992 880.191 497.19 878.74 498.432 877.164C500.516 874.518 502.21 871.572 502.719 869.696C502.781 869.461 502.987 868.986 503.164 868.679C503.341 868.371 503.468 867.855 503.451 867.578C503.435 867.301 503.475 867.096 503.546 867.148C503.74 867.289 504.751 861.084 504.746 859.785C504.743 859.19 504.817 858.574 504.906 858.452C504.995 858.329 504.975 858.143 504.853 858.054C504.731 857.965 504.733 857.748 504.859 857.575C504.985 857.401 505.04 856.833 504.988 856.327C504.933 855.803 504.904 854.644 504.929 853.71C504.966 852.333 504.234 847.214 503.68 844.891C502.805 841.275 501.019 837.025 499.316 834.567C498.742 833.728 498.157 832.818 498.027 832.567C497.527 831.563 493.774 827.144 492.15 825.648C491.927 825.439 491.022 824.562 490.148 823.706C488.034 821.62 483.147 817.965 480.598 816.56C479.462 815.936 478.538 815.512 478.558 815.635C478.577 815.759 478.364 815.666 478.104 815.445C476.309 813.904 467.125 811.673 464.02 812.016C463.408 812.085 462.939 812.086 462.976 812.035C463.162 811.781 457.606 812.256 455.14 812.706C451.624 813.357 448.209 814.769 447.701 815.787C447.654 815.893 447.493 815.901 447.361 815.804C447.228 815.708 447.113 815.78 447.095 815.954C447.08 816.146 446.983 816.215 446.861 816.126C446.739 816.037 446.241 816.377 445.752 816.878C445.262 817.379 443.87 818.518 442.65 819.422C440.256 821.188 439.82 821.635 440.021 822.109C440.199 822.55 441.221 822.453 441.353 821.972C441.418 821.754 441.523 821.675 441.613 821.787C441.693 821.892 443.098 821.761 444.68 821.495C448.399 820.866 450.762 820.685 453.472 820.819C456.028 820.95 460.156 821.836 461.998 822.648C464.201 823.629 470.021 827.651 471.526 829.247C472.273 830.041 473.008 830.81 473.171 830.992C473.446 831.301 474.012 832.15 474.835 833.483C475.051 833.828 475.335 834.253 475.465 834.395C476.021 835.002 477.689 839.072 478.007 840.583C478.196 841.501 478.572 842.633 478.839 843.124C479.105 843.614 479.239 844.117 479.142 844.249C479.045 844.382 479.097 844.482 479.231 844.47C479.382 844.455 479.567 844.887 479.657 845.405C479.801 846.321 480.106 847.978 481.268 854.284C481.48 855.406 481.631 856.655 481.624 857.071C481.607 857.48 481.643 858.286 481.681 858.813C481.718 859.339 481.645 860.082 481.524 860.399C481.387 860.736 481.376 861.008 481.505 861.024C481.742 861.041 481.274 863.118 481.01 863.223C480.95 863.241 480.953 863.43 481.033 863.598C481.106 863.776 481.069 864.17 480.949 864.441C480.822 864.723 480.493 865.56 480.206 866.318C479.919 867.076 479.339 868.15 478.898 868.734C478.464 869.307 478.169 869.841 478.243 869.911C478.317 869.98 478.195 870.234 477.946 870.49C477.697 870.745 477.004 871.504 476.363 872.191C475.213 873.427 473.127 875.027 470.459 876.718C469.679 877.211 468.862 877.754 468.645 877.924C468.4 878.089 468.114 878.161 468.012 878.086C467.89 877.997 467.776 878.024 467.733 878.148C467.697 878.262 466.426 879.021 464.912 879.836C456.513 884.34 454.747 884.988 448.565 885.85C443.239 886.586 442.316 886.569 436.753 885.619C434.963 885.314 434.094 885.008 433.248 884.392C431.781 883.323 430.725 883.037 430.31 883.608C429.916 884.148 430.023 886.207 430.461 886.526C430.634 886.652 430.728 886.845 430.661 886.937C430.225 887.555 433.578 890.747 436.211 892.229ZM432.981 887.114C432.959 887.036 433.173 887.129 433.427 887.315C433.682 887.5 434.049 887.596 434.237 887.53C434.423 887.447 434.664 887.545 434.792 887.732C434.913 887.93 435.091 888.028 435.199 887.966C435.307 887.904 435.875 887.959 436.461 888.075C439.286 888.651 440.453 888.784 442.599 888.772C443.897 888.766 444.932 888.802 444.895 888.853C444.858 888.904 445.419 888.861 446.109 888.771C446.816 888.678 448.657 888.443 450.24 888.24C453.822 887.777 454.78 887.554 457.469 886.518C460.449 885.383 471.818 879.456 473.693 878.061C474.527 877.452 475.394 876.882 475.592 876.824C475.939 876.734 476.256 876.449 478.279 874.507C479.77 873.082 481.837 870.267 482.554 868.684C482.881 867.955 483.244 867.158 483.378 866.867C483.745 866.042 484.263 864.111 484.518 862.627C484.785 860.997 484.743 855.038 484.456 854.19C484.354 853.881 484.304 853.564 484.359 853.51C484.501 853.38 483.482 847.755 483.084 846.482C482.918 845.94 482.891 845.484 483.032 845.462C483.173 845.439 483.164 845.324 483.011 845.212C482.736 845.012 481.484 841.12 481.48 840.462C481.48 840.228 481.418 840.183 481.315 840.326C481.211 840.468 481.149 840.424 481.149 840.189C481.158 839.042 477.808 832.186 476.683 831.054C476.276 830.649 475.614 829.823 475.215 829.236C474.816 828.649 474.161 827.985 473.75 827.779C473.346 827.562 473.048 827.329 473.1 827.258C473.226 827.085 470.101 824.886 467.235 823.125C464.587 821.492 461.051 820.008 459.004 819.671C454.462 818.904 453.276 818.882 448.168 819.513C447.398 819.606 446.318 819.74 445.805 819.802L444.858 819.924L447.141 818.311C450.275 816.087 451.932 815.375 455.248 814.828C463.171 813.503 471.508 814.648 477.696 817.909C482.624 820.502 489.398 825.999 492.677 830.041C493.113 830.578 493.589 831.252 493.711 831.512C493.833 831.773 494.231 832.297 494.566 832.651C494.901 833.004 495.313 833.553 495.448 833.839C495.585 834.142 495.732 834.327 495.776 834.265C495.821 834.204 496.501 835.262 497.281 836.61C498.947 839.462 500.099 842.313 500.516 844.567C500.581 844.927 500.672 845.273 500.713 845.303C500.804 845.37 501.697 849.561 501.719 850.045C501.721 850.234 501.812 851.33 501.886 852.492C502.103 855.426 501.884 861.444 501.581 861.239C501.499 861.179 501.478 861.273 501.533 861.454C501.589 861.635 501.535 862.329 501.406 862.999C501.276 863.669 501.082 864.728 500.982 865.357C500.882 865.987 500.635 866.711 500.449 866.966C500.264 867.221 500.066 867.685 500.022 867.981C499.811 869.277 499.186 870.648 497.699 873.011C496.832 874.392 496 875.642 495.846 875.81C495.692 875.979 494.955 876.862 494.228 877.752C490.062 882.828 477.806 889.778 468.041 892.584C464.009 893.749 458.543 894.571 454.404 894.643C447.427 894.755 442.891 893.508 436.456 889.709C435.531 889.159 434.702 888.712 434.632 888.723C434.453 888.733 433.024 887.333 432.981 887.114Z" fill="white"/>
<path d="M417.911 870.502C418.572 870.173 422.871 864.787 426.892 859.247L430.156 854.746L431.63 855.227C433.609 855.873 435.766 856.166 435.726 855.794C435.706 855.607 435.751 855.609 435.837 855.812C436.087 856.369 439.57 856.77 441.699 856.48C443.016 856.301 443.776 856.028 444.066 855.631C444.734 854.714 444.058 854.143 439.748 851.923C436.596 850.297 435.157 849.467 433.7 848.405L432.232 847.336L432.752 846.045C433.04 845.35 433.581 844.201 433.948 843.547C434.314 842.894 434.757 841.922 434.925 841.436C435.332 840.235 436.292 838.189 437.127 836.723C438.215 834.801 439.068 832.303 438.843 831.733C438.532 830.961 437.625 831.329 435.689 833.023C434.799 833.794 433.44 834.91 432.704 835.45C431.96 836 430.963 836.833 430.498 837.321C430.023 837.802 429.087 838.679 428.379 839.287C426.861 840.599 426.986 840.471 426.599 841.001C426.147 841.623 425.616 841.174 425.38 839.956C425.279 839.431 424.87 838.322 424.491 837.515C424.104 836.718 423.783 835.938 423.782 835.812C423.774 835.48 421.662 830.821 421.448 830.665C421.357 830.598 421.12 830.067 420.941 829.499C420.761 828.932 420.451 828.394 420.276 828.313C420.101 828.232 420.006 828.085 420.087 827.973C420.162 827.871 419.887 827.156 419.481 826.408C418.576 824.781 417.923 824.649 417.683 826.049C417.604 826.522 417.501 826.962 417.459 827.041C417.334 827.277 417.451 829.749 417.752 833.104C417.913 834.875 418.057 837.225 418.06 838.398C418.071 839.56 418.137 841.012 418.191 841.644C418.398 843.714 418.461 844.977 418.365 845.109C418.313 845.181 414.72 845.808 410.408 846.503C406.095 847.198 402.428 847.927 402.287 848.12C402.154 848.304 402.198 848.757 402.394 849.087C402.691 849.6 403.72 850.007 408.256 851.425C411.283 852.366 414.822 853.525 416.115 853.999C417.417 854.481 418.801 854.958 419.226 855.081C419.717 855.221 419.949 855.374 419.865 855.531C419.612 855.986 419.559 856.166 419.168 857.644C418.952 858.454 418.749 859.632 418.686 860.319C418.622 861.005 418.521 861.509 418.439 861.449C418.368 861.397 418.302 861.552 418.303 861.787C418.313 862.029 418.128 862.861 417.902 863.663C417.674 864.448 417.267 866.227 416.989 867.615C416.611 869.524 416.593 870.213 416.929 870.458C417.189 870.616 417.636 870.645 417.911 870.502Z" fill="white"/>
<path d="M398.866 821.558C399.101 821.386 399.853 820.717 400.545 820.067C401.248 819.425 401.9 818.808 402.02 818.708C402.129 818.6 402.669 818.073 403.209 817.546L404.194 816.58L405.596 817.804C406.369 818.476 407.34 819.371 407.731 819.796C408.368 820.464 408.51 820.504 408.775 820.12C409.099 819.654 408.471 817.496 407.779 816.649C407.555 816.377 407.245 815.776 407.115 815.354L406.875 814.571L408.334 813.746C413.09 811.05 413.228 810.947 412.581 810.336C412.218 809.978 411.547 810.128 408.873 811.144C406.515 812.046 405.539 812.272 405.359 811.984C405.225 811.761 405.198 811.477 405.302 811.334C405.406 811.192 405.559 810.04 405.634 808.737C405.749 806.996 405.648 806.299 405.269 806.006C404.93 805.744 404.66 805.75 404.474 806.005C404.103 806.514 402.964 809.662 402.623 811.114L402.364 812.22L401.366 812.069C400.83 811.991 400.189 811.821 399.991 811.708C399.137 811.21 396.003 810.502 395.817 810.757C395.379 811.358 395.87 812.012 397.5 813.028C400.141 814.671 400.983 815.035 401.407 814.689C401.606 814.522 401.266 815.117 400.641 816.018C399.405 817.801 398.506 819.377 398.067 820.492C397.759 821.344 398.263 822.023 398.866 821.558Z" fill="white"/>
<path d="M431.726 815.082C432.107 814.923 432.789 814.437 433.234 813.997C433.68 813.557 434.91 812.426 435.989 811.48C437.06 810.545 438.129 809.592 438.358 809.385C438.689 809.08 439.21 809.179 440.844 809.87C443.368 810.945 444.719 811.274 445.251 810.929C445.974 810.472 445.566 809.598 444.001 808.255C443.187 807.553 442.222 806.694 441.859 806.335L441.207 805.689L442.364 804.379C443 803.657 443.658 802.967 443.835 802.831C444.005 802.705 444.775 801.862 445.57 800.943C447.064 799.193 447.242 798.434 446.26 797.983C445.841 797.787 444.837 798.459 439.524 802.497C438.79 803.054 438.132 803.464 438.051 803.405C437.969 803.345 437.976 802.695 438.063 801.932C438.284 800.002 438.508 795.049 438.424 794.051C438.337 793.099 438.163 792.91 437.453 792.986C437.143 793.025 436.892 793.263 436.786 793.623C436.702 793.952 436.583 794.286 436.519 794.396C436.455 794.505 436.409 794.611 436.397 794.649C436.385 794.687 436.284 794.911 436.169 795.154C435.775 795.974 434.97 798.555 434.382 800.84C434.064 802.091 433.734 803.099 433.654 803.102C433.573 803.106 432.387 803.022 431.044 802.917C429.701 802.812 428.381 802.739 428.132 802.76C427.882 802.781 427.574 802.712 427.441 802.616C427.084 802.356 425.671 803.011 425.542 803.51C425.386 804.066 426.814 805.06 428.493 805.582C429.063 805.763 429.517 805.954 429.473 806.015C429.428 806.076 429.879 806.249 430.492 806.414C431.104 806.58 431.9 806.879 432.3 807.123C432.996 807.537 432.992 807.565 431.873 810.385C430.477 813.907 430.259 814.762 430.687 815.074C430.869 815.253 431.345 815.241 431.726 815.082ZM431.686 804.711C431.694 804.529 431.819 804.464 431.952 804.561C432.084 804.657 432.112 804.833 432.023 804.956C431.926 805.088 431.819 805.15 431.757 805.106C431.706 805.069 431.671 804.903 431.686 804.711Z" fill="white"/>
</g>
<g clip-path="url(#clip10_1_281)">
<path d="M287.022 575.088C286.959 575.189 286.859 575.87 286.795 576.601C286.669 578.076 286.203 581.392 285.9 582.93C285.749 583.75 285.61 583.989 285.169 584.216C284.224 584.708 282.307 585.073 279.76 585.275C278.411 585.376 277.214 585.515 277.1 585.59C276.684 585.842 277.516 586.032 279.117 586.032C280.05 586.032 281.185 586.12 281.677 586.233C285.711 587.141 285.51 587.04 285.825 588.187C286.102 589.221 286.619 592.814 286.808 595.059C286.972 597.013 287.338 596.622 287.502 594.315C287.64 592.234 288.132 588.956 288.447 587.998C288.548 587.671 288.75 587.305 288.876 587.204C289.317 586.838 293.44 586.057 295.129 586.019C296.68 585.981 297.436 585.817 297.184 585.565C297.121 585.502 296.188 585.401 295.091 585.351C292.961 585.237 290.716 584.846 289.43 584.38C288.8 584.153 288.624 583.964 288.447 583.384C288.081 582.148 287.665 579.349 287.539 577.357C287.426 575.466 287.249 574.723 287.022 575.088Z" fill="white"/>
</g>
<path d="M144.605 775.117C143.422 776.294 140.373 778.75 135.103 782.738C130.687 786.071 126.31 789.485 124.878 790.671C122.831 792.388 116.294 797.499 115.718 797.859C115.341 798.092 115.051 798.352 115.081 798.448C115.627 800.549 116.07 802.654 116.013 802.856C115.924 803.213 116.094 804.9 116.322 805.78C116.423 806.197 116.441 806.561 116.333 806.594C116.188 806.638 116.172 807.842 116.294 808.675C116.304 808.751 116.282 808.942 116.258 809.12C116.229 809.287 116.194 810.036 116.202 810.758C116.199 811.484 116.136 812.228 116.059 812.409C115.979 812.579 115.981 812.934 116.051 813.163C116.242 813.79 115.197 815.597 112.975 818.474C111.918 819.85 110.405 821.851 109.606 822.951C108.816 824.035 108.081 824.957 107.985 824.986C107.888 825.015 107.38 825.684 106.889 826.453C106.398 827.221 105.724 828.125 105.421 828.428C105.118 828.731 104.829 829.082 104.779 829.177C104.614 829.543 101.391 833.937 99.8967 835.827C99.0675 836.87 98.3646 837.809 98.3179 837.915C98.2713 838.022 97.8941 838.558 97.4939 839.062C97.0937 839.566 96.6432 840.164 96.5304 840.357C96.4176 840.549 96.0908 840.991 95.8312 841.307C95.3408 841.904 90.2854 848.766 89.9156 849.327C89.7992 849.507 88.6757 850.969 87.42 852.603C86.1522 854.24 84.6935 856.16 84.1396 856.895C82.8456 858.62 79.1981 863.524 78.404 864.596C75.7898 868.132 75.2553 868.888 74.9338 869.434C74.7166 869.803 74.4533 870.107 74.3206 870.147C74.2 870.184 73.6015 870.946 72.9925 871.803C71.2055 874.376 68.6175 877.825 66.6957 880.215C66.3532 880.649 65.9593 881.217 65.7793 881.535C65.4483 882.136 64.8777 882.903 63.654 884.382C63.2008 884.929 62.7298 885.546 62.5966 885.758C62.2845 886.248 60.4114 888.755 57.7788 892.231C56.6218 893.756 55.3592 895.497 54.9679 896.117C54.5766 896.737 53.3933 898.349 52.3694 899.662C51.3456 900.975 49.9844 902.825 49.3901 903.731L48.2855 905.384L47.6075 904.932C47.2515 904.671 46.7381 904.326 46.4948 904.176C46.2515 904.026 44.8709 902.997 43.472 901.907C40.3957 899.548 39.7412 899.259 38.9493 899.948C38.0876 900.711 38.1374 900.788 41.9697 904.116C42.8275 904.857 43.828 905.633 44.1704 905.806C45.0912 906.277 45.1142 906.612 44.2531 906.901C41.7179 907.751 38.1375 909.973 36.768 911.536C36.5828 911.751 36.0909 912.256 35.6613 912.664C34.8672 913.432 34.2714 914.246 33.4064 915.735C33.1305 916.214 32.8577 916.574 32.8116 916.509C32.7654 916.444 32.4732 917.086 32.1469 917.963C31.5436 919.662 31.4818 922.145 32.0075 923.83C32.6396 925.865 34.9908 927.746 37.3458 928.123C39.7287 928.505 42.8984 927.185 44.967 924.975C46.059 923.799 48.8964 918.614 48.735 918.083C48.6799 917.902 48.83 917.052 49.085 916.158C49.34 915.263 49.5316 914.507 49.5059 914.422C49.4959 914.346 49.5385 913.793 49.6136 913.217C49.6887 912.64 49.8094 911.694 49.8761 911.134L50.0027 910.12L52.7681 912.02C57.1281 915.003 58.0452 915.462 58.6106 914.895C59.123 914.37 58.9344 913.36 58.1731 912.59C57.6797 912.094 52.0136 907.98 51.1725 907.511C50.4573 907.109 50.5276 906.864 51.8247 905.322C52.5123 904.507 54.024 902.545 55.1701 900.984C56.3282 899.419 58.569 896.432 60.1562 894.328C61.7554 892.221 63.2042 890.225 63.4009 889.875C63.5976 889.526 64.2957 888.615 64.9256 887.87C65.5676 887.121 66.1383 886.354 66.175 886.172C66.2391 885.862 66.5816 885.429 68.4006 883.307C68.7504 882.898 72.1456 878.333 74.3271 875.324C75.0143 874.377 76.0523 872.981 76.6555 872.191C77.2503 871.417 78.6896 869.477 79.8393 867.928C80.9854 866.367 82.2133 864.729 82.5474 864.311C82.8778 863.881 84.1251 862.263 85.3195 860.687C86.5138 859.112 87.8356 857.392 88.2646 856.853C88.6937 856.314 89.4264 855.3 89.8838 854.594C91.5251 852.105 92.0176 851.428 92.9817 850.265C93.513 849.629 94.2306 848.739 94.5741 848.265C94.9177 847.792 96.2201 846.052 97.4936 844.346C98.7671 842.641 99.9373 841.073 100.111 840.822C100.289 840.584 100.579 840.193 100.764 839.978C101.806 838.726 102.406 837.924 103.054 836.936C103.461 836.325 104.099 835.432 104.491 834.944C105.522 833.655 109.931 827.702 110.459 826.882C110.704 826.518 111.279 825.763 111.735 825.229C112.192 824.695 112.688 824.03 112.847 823.771C112.993 823.515 113.362 822.995 113.647 822.631C113.932 822.268 114.645 821.366 115.235 820.619C115.826 819.873 116.558 818.86 116.875 818.342C118.079 816.407 118.801 815.792 120.323 815.422C122.478 814.885 124.712 814.864 127.291 815.371C130.859 816.052 130.859 816.052 132.953 810.328C133.928 807.686 135.184 804.233 135.755 802.689C136.331 801.117 136.961 799.331 137.17 798.674C137.379 798.018 137.726 797.082 137.955 796.577C138.172 796.077 138.786 794.585 139.298 793.323C139.806 792.048 140.275 790.904 140.337 790.806C140.388 790.711 140.623 790.099 140.855 789.475C141.087 788.851 141.471 787.904 141.695 787.428C141.927 786.935 142.278 786.183 142.47 785.729C142.661 785.276 143.427 783.461 144.196 781.699C146.414 776.557 147.008 774.913 146.772 774.484C146.457 773.882 145.576 774.15 144.605 775.117ZM142.247 779.669C141.764 780.462 140.889 781.703 140.304 782.421C139.71 783.155 139.069 784.036 138.848 784.393C138.242 785.434 137.084 786.867 136.914 786.787C136.82 786.736 136.632 786.464 136.511 786.198C136.39 785.931 136.168 785.59 136.036 785.459C135.294 784.71 135.572 784.151 137.425 782.704C138.468 781.886 139.637 780.964 140.028 780.647C140.407 780.334 141.067 779.817 141.454 779.528C141.84 779.24 142.261 778.848 142.357 778.687C142.465 778.522 142.673 778.34 142.834 778.305C142.994 778.269 142.731 778.876 142.247 779.669ZM134.985 787.637L135.439 789.041L134.133 790.769C133.418 791.711 132.754 792.519 132.67 792.545C132.585 792.571 132.444 792.192 132.357 791.691C132.264 791.166 131.792 790.308 131.223 789.651C130.693 789.035 130.306 788.414 130.365 788.304C130.436 788.19 131.259 787.518 132.215 786.806C134.185 785.31 134.241 785.32 134.985 787.637ZM141.341 784.399C141.239 784.628 141.004 785.2 140.813 785.653C139.99 787.67 139.584 788.373 139.222 788.483C138.33 788.754 138.483 788.088 139.746 786.176C141.021 784.259 141.769 783.425 141.341 784.399ZM129.599 790.29C129.907 790.697 130.388 791.802 130.667 792.719L131.177 794.396L130.001 796.032C127.931 798.888 128.066 798.768 128.114 797.713C128.159 796.605 126.796 793.725 125.84 792.922C125.501 792.63 125.252 792.376 125.289 792.326C125.463 792.075 128.469 789.738 128.722 789.661C128.896 789.581 129.29 789.883 129.599 790.29ZM124.364 793.833C124.928 794.689 126.278 797.612 126.645 798.818C127.027 800.033 126.989 800.124 125.735 801.849L124.432 803.63L124.012 802.466C123.253 800.404 122.101 798.395 121.072 797.351C120.159 796.429 120.111 796.312 120.477 796.043C120.689 795.873 121.451 795.259 122.168 794.672C123.729 793.393 124 793.284 124.364 793.833ZM138.282 790.245C138.586 790.679 138.163 792.627 137.741 792.755C137.657 792.781 137.427 793.325 137.235 793.95C136.903 795.026 136.257 795.631 136.074 795.028C136.026 794.871 135.546 794.635 135.003 794.497L134.02 794.256L135.504 792.157C137.09 789.922 137.744 789.473 138.282 790.245ZM120.169 798.627C120.999 799.666 121.453 800.595 122.093 802.614L122.929 805.233L122.041 806.254C121.543 806.827 120.601 808.063 119.921 809.034C118.201 811.481 118.128 811.543 118.215 810.528C118.472 807.129 118.187 804.33 117.252 801.254L116.536 798.902L117.641 798.157C118.242 797.75 118.814 797.379 118.919 797.334C119.012 797.292 119.586 797.882 120.169 798.627ZM133.835 796.117C134.38 796.176 135.104 796.39 135.462 796.611C136.093 796.999 136.088 797.066 135.006 799.794C134.404 801.321 133.83 802.642 133.741 802.695C133.652 802.749 133.164 802.489 132.636 802.096C132.124 801.711 131.157 801.307 130.506 801.202L129.318 801.023L131.023 798.567C131.956 797.216 132.747 796.093 132.788 796.054C132.821 796.031 133.291 796.059 133.835 796.117ZM129.46 802.917C130.191 803.024 131.321 803.405 131.97 803.761L133.141 804.407L132.23 806.911L131.318 809.415L130.496 808.835C130.057 808.521 129.434 808.117 129.131 807.946C128.271 807.456 125.711 806.97 125.536 807.26C125.448 807.405 125.39 807.344 125.388 807.121C125.397 806.802 127.757 802.908 128.052 802.752C128.1 802.738 128.729 802.81 129.46 802.917ZM127.468 809.453C127.693 809.543 127.861 809.531 127.831 809.435C127.798 809.326 127.989 809.347 128.257 809.49C128.52 809.62 129.203 809.914 129.743 810.131L130.746 810.525L130.496 811.523C130.358 812.066 130.117 812.877 129.955 813.296L129.675 814.066L127.607 813.549C126.379 813.237 124.608 813.09 123.142 813.167L120.718 813.298L121.912 811.591C122.575 810.652 123.332 809.762 123.612 809.598C124.206 809.299 126.805 809.18 127.468 809.453ZM47.5528 908.954C47.5181 913.129 46.3882 918.296 44.868 921.183C43.9689 922.906 41.9187 924.874 40.3128 925.573C37.0288 926.994 33.8208 924.636 34.0338 920.96C34.0995 919.833 35.3743 916.876 36.4889 915.298C37.5291 913.822 41.1007 910.877 42.7475 910.139C43.2116 909.932 44.0119 909.531 44.4976 909.264C44.9953 908.994 45.8732 908.675 46.4826 908.555C47.4418 908.329 47.5603 908.372 47.5528 908.954Z" fill="white"/>
<path d="M119.055 123.1C117.909 123.088 116.627 123.178 116.24 123.295C115.853 123.412 115.435 123.516 115.331 123.515C115.227 123.515 114.979 123.699 114.755 123.947C114.462 124.272 114.305 125.101 114.073 127.487C113.911 129.191 113.761 130.772 113.729 130.988C113.687 131.297 113.462 131.357 112.687 131.289C111.302 131.159 108.016 131.577 107.245 131.979C106.893 132.162 106.454 132.587 106.296 132.905C105.852 133.788 105.642 136.687 105.939 137.666C106.276 138.764 107 139.13 108.836 139.128L110.275 139.128L110.149 140.68C110.083 141.539 110.068 142.309 110.119 142.418C110.309 142.813 109.82 146.81 109.374 148.538C108.724 151.038 107.858 152.067 105.396 153.308C104.32 153.846 103.399 154.285 103.347 154.279C103.141 154.258 99.2877 156.361 97.563 157.427C95.8827 158.467 92.9119 160.919 91.427 162.5C91.1013 162.832 90.7756 163.164 90.6981 163.208C90.4863 163.343 88.5187 166.085 87.6619 167.438C86.6065 169.104 85.1368 172.491 84.8539 173.943C84.7084 174.658 84.5236 175.453 84.4447 175.716C83.9875 177.141 83.5428 183.792 83.7976 185.497C83.8651 185.962 83.9331 186.835 83.9612 187.485C83.9582 188.131 84.0132 188.721 84.0564 188.808C84.0997 188.896 84.16 189.33 84.1884 189.771C84.2787 190.938 84.4773 192.168 85.2706 196.587C85.3505 197.033 85.4303 197.584 85.4435 197.762C85.4546 197.962 85.5543 198.316 85.6726 198.589C85.791 198.862 85.8763 199.152 85.8659 199.255C85.8354 199.659 86.0101 201.022 86.2134 201.898C86.3376 202.421 86.6412 203.954 86.9191 205.328C87.6954 209.297 88.3326 212.271 88.5887 213.038C88.7152 213.437 89.1916 215.425 89.6525 217.464C90.3699 220.676 92.1016 225.92 93.1869 228.179C93.3764 228.574 93.7099 229.296 93.9138 229.755C94.935 232.028 95.1657 232.427 95.4178 232.306C95.5821 232.229 95.611 232.253 95.4962 232.356C95.3133 232.514 96.3455 234.267 97.2311 235.306C98.7589 237.109 101.213 238.828 102.975 239.351C103.41 239.478 104.736 239.884 105.919 240.244C109.602 241.368 114.886 241.716 119.192 241.12C122.196 240.705 124.526 239.637 126.894 237.572C127.809 236.778 130.242 234.073 130.267 233.825C130.274 233.753 130.636 233.268 131.076 232.739C131.516 232.21 132.062 231.452 132.301 231.048C132.529 230.654 132.849 230.165 132.992 229.992C134.031 228.689 135.81 225.344 137.725 221.064C138.277 219.837 139.064 218.144 139.484 217.289C139.903 216.445 140.265 215.554 140.287 215.337C140.309 215.12 140.421 214.943 140.524 214.954C140.679 214.97 140.924 214.4 141.617 212.405C141.705 212.153 141.968 211.512 142.222 210.964C142.788 209.697 144.426 205.681 144.744 204.806C144.875 204.443 145.004 204.091 145.03 204.042C145.057 203.982 145.31 203.34 145.604 202.598C145.898 201.856 146.396 200.655 146.721 199.916C147.036 199.176 147.372 198.324 147.456 198.009C147.541 197.694 147.835 196.848 148.098 196.103C148.372 195.359 148.708 194.308 148.858 193.75C149.009 193.191 149.19 192.532 149.267 192.289C149.578 191.278 150.45 186.996 150.482 186.373C150.687 181.367 150.612 179.325 150.173 177.382C149.732 175.46 148.813 172.582 148.397 171.852C148.193 171.497 148.024 171.105 148.035 171.002C148.035 170.897 147.73 170.303 147.352 169.712C146.974 169.121 146.666 168.558 146.674 168.475C146.688 168.341 144.331 165.15 143.236 163.809C142.057 162.375 141.35 161.625 141.154 161.606C141.03 161.593 140.772 161.369 140.579 161.109C140.285 160.714 138.966 159.631 135.858 157.262C132.674 154.822 132.494 154.637 132.074 153.436C131.478 151.697 131.563 147.982 132.296 143.634L132.638 141.593L134.476 141.779C136.509 141.985 136.793 141.868 137.37 140.591C137.789 139.653 138.014 137.538 137.809 136.37C137.684 135.648 137.471 135.376 136.64 134.833C135.555 134.118 133.284 133.366 131.787 133.215L130.93 133.128L131.171 130.649C131.532 126.879 131.54 125.774 131.235 125.388C130.408 124.387 123.827 123.146 119.055 123.1ZM129.84 130.201L129.552 133.04L127.205 132.625C124.142 132.085 120.384 131.704 118.647 131.758C117.246 131.793 115.26 131.623 115.112 131.441C115.038 131.35 115.22 129.241 115.519 126.81L115.633 125.893L122.88 126.627L130.127 127.362L129.84 130.201ZM126.086 134.618L129.125 135.093L128.778 137.071C128.585 138.157 128.375 139.2 128.315 139.381C128.244 139.562 128.068 140.378 127.912 141.197C127.755 142.026 127.47 143.29 127.269 144.042C127.067 144.793 126.746 146.315 126.548 147.442C126.206 149.379 126.032 150.175 125.949 150.166C125.928 150.164 125.852 150.407 125.758 150.71C125.675 151.015 125.575 151.286 125.53 151.313C125.314 151.489 118.756 150.95 117.079 150.623L115.146 150.239L115.063 149.417C115.015 148.964 114.987 147.803 114.999 146.856C115.012 145.908 115.006 144.322 114.987 143.371C114.895 138.626 114.891 135.476 114.985 134.547L115.089 133.514L119.062 133.833C121.267 134.005 124.402 134.354 126.086 134.618ZM113.387 137.347C113.374 141.695 113.369 141.434 113.585 145.993C113.808 150.886 113.83 150.982 114.507 151.405C114.831 151.605 116.247 151.936 117.645 152.141C119.043 152.345 120.265 152.531 120.345 152.56C120.727 152.703 125.2 152.719 125.85 152.586C126.67 152.419 126.696 152.37 127.39 149.739C127.642 148.794 128.077 147.18 128.364 146.093C128.958 143.942 129.251 142.595 129.628 140.422C129.771 139.623 129.971 138.579 130.078 138.142C130.252 137.45 130.582 135.95 130.695 135.346C130.806 134.763 136.055 136.182 136.228 136.835C136.283 137.018 136.241 137.118 136.155 137.047C136.068 136.976 135.914 137.565 135.812 138.368C135.71 139.171 135.55 139.927 135.454 140.053C135.345 140.198 134.625 140.198 133.576 140.061C131.784 139.827 131.221 140.031 131.526 140.833C131.599 141.039 131.456 141.932 131.21 142.814C130.18 146.496 129.882 150.262 130.409 153.09C130.679 154.536 131.967 156.346 133.596 157.554C134.092 157.917 135.106 158.708 135.887 159.34C136.669 159.962 137.368 160.471 137.461 160.48C137.565 160.491 137.66 160.584 137.687 160.722C137.716 160.85 138.151 161.291 138.642 161.695C140.701 163.406 143.879 167.138 144.893 169.067C145.025 169.309 145.34 169.904 145.584 170.378C146.222 171.6 147.296 174.379 147.715 175.903C148.072 177.222 148.601 180.644 148.569 181.475C148.54 182.38 147.687 190.69 147.59 191.139C147.353 192.137 146.112 195.943 145.528 197.48C145.188 198.373 144.84 199.329 144.749 199.612C144.558 200.26 143.439 203.067 142.665 204.845C142.339 205.584 141.996 206.498 141.899 206.843C141.8 207.198 141.502 207.981 141.22 208.6C140.938 209.218 140.689 209.829 140.643 209.97C140.514 210.426 138.616 214.844 138.459 215.058C138.363 215.183 138.259 215.381 138.225 215.514C138.192 215.635 137.285 217.682 136.208 220.076C133.393 226.341 131.075 230.278 128.029 233.984C126.781 235.495 124.012 238.114 123.682 238.081C123.61 238.074 123.044 238.308 122.387 238.617C121.269 239.15 119.89 239.48 118.549 239.532C118.203 239.549 117.444 239.629 116.862 239.715C116.28 239.802 114.048 239.691 111.901 239.473C104.324 238.695 100.725 237.266 98.2539 234.064C97.0459 232.502 95.3228 229.23 94.0714 226.141C93.3387 224.314 91.6403 218.844 91.5393 217.989C91.5219 217.851 91.4562 217.574 91.3852 217.347C91.3236 217.133 91.2477 216.749 91.2284 216.528C91.209 216.307 91.1701 216.074 91.1433 216.03C91.1165 215.985 91.0847 215.888 91.0631 215.792C91.0519 215.697 90.9028 215.212 90.7537 214.728C90.6047 214.244 90.458 213.53 90.4306 213.183C90.4145 212.827 90.2319 211.953 90.0397 211.276C89.8486 210.589 89.6483 209.787 89.626 209.493C89.5934 209.197 89.4097 208.334 89.2187 207.543C89.0174 206.75 88.8481 205.951 88.837 205.752C88.8156 205.551 88.7583 205.191 88.6915 204.923C88.3804 203.671 88.2789 203.129 88.0076 201.381C87.852 200.343 87.5868 198.741 87.4176 197.837C87.2495 196.923 86.9258 194.971 86.6935 193.456C86.4612 191.941 86.24 190.521 86.2135 190.268C86.1777 190.004 86.1035 189.193 86.0528 188.458C86.0022 187.723 85.8908 186.867 85.8076 186.556C85.2179 184.347 86.3786 174.233 87.4154 172.649C87.5395 172.453 87.7477 171.942 87.8774 171.485C88.0061 171.04 88.4161 170.184 88.8031 169.556C89.1901 168.928 89.507 168.271 89.5258 168.085C89.5457 167.889 89.6646 167.745 89.7885 167.757C89.9124 167.77 90.0313 167.626 90.0512 167.429C90.0701 167.244 90.4798 166.597 90.9442 166.028C91.4086 165.46 92.0912 164.591 92.4398 164.136C93.2476 163.06 95.9323 160.756 98.0726 159.294C100.09 157.913 102.423 156.501 102.62 156.521C102.702 156.529 103.327 156.228 104.002 155.848C104.687 155.469 105.333 155.169 105.467 155.183C105.601 155.196 105.702 155.123 105.713 155.02C105.723 154.917 106.002 154.736 106.326 154.633C107.233 154.329 108.674 153.182 109.376 152.22C110.772 150.286 111.675 145.486 111.426 141.362C111.357 140.291 111.353 139.091 111.412 138.722L111.513 138.033L109.651 137.782L107.788 137.53L107.716 136.803C107.673 136.403 107.699 135.529 107.766 134.868L107.888 133.66L109.088 133.448C109.746 133.338 110.993 133.287 111.852 133.353L113.415 133.47L113.387 137.347Z" fill="white"/>
<path d="M118.72 128.146C118.292 128.353 118.377 129.571 118.846 129.994C119.084 130.217 119.331 130.252 119.647 130.117C120.343 129.833 120.493 129.379 120.137 128.676C119.823 128.07 119.28 127.869 118.72 128.146Z" fill="white"/>
<path d="M126.037 128.919C125.86 129.016 125.648 129.359 125.583 129.686C125.483 130.166 125.571 130.321 126.014 130.481C126.678 130.726 127.057 130.378 127.061 129.513C127.062 128.887 126.599 128.621 126.037 128.919Z" fill="white"/>
<path d="M122.947 137.482C122.501 137.77 122.319 138.023 122.396 138.292C122.458 138.496 122.517 138.846 122.529 139.035C122.537 139.265 122.824 139.42 123.33 139.471C123.918 139.531 124.19 139.423 124.438 139.03C125.173 137.853 124.107 136.744 122.947 137.482Z" fill="white"/>
<path d="M117.855 142.963C117.215 143.409 117.24 144.194 117.899 144.48C118.558 144.766 118.988 144.538 119.103 143.819C119.271 142.877 118.617 142.435 117.855 142.963Z" fill="white"/>
<path d="M121.817 146.368C121.209 146.912 121.431 148.123 122.124 148.068C122.975 148.008 124.002 146.83 123.28 146.756C123.166 146.745 123.097 146.602 123.144 146.451C123.284 145.995 122.31 145.928 121.817 146.368Z" fill="white"/>
<path d="M111.256 178.225C110.806 178.232 108.985 178.194 107.195 178.158C101.982 178.036 94.9013 178.946 92.8648 180.002C92.5124 180.185 92.155 180.315 92.0517 180.305C91.9485 180.295 91.501 180.593 91.0441 180.985C90.2337 181.675 90.2202 181.705 90.1621 183.409C90.0998 185.26 90.2556 189.176 90.4712 190.856C90.5478 191.438 90.6305 192.166 90.6703 192.493C90.8825 194.413 93.0447 208.994 93.2142 209.585C93.391 210.208 94.1123 213.588 94.2249 214.329C94.2423 214.466 94.3595 214.854 94.4633 215.167C94.9837 216.722 95.3845 218.118 95.3667 218.294C95.3123 218.83 97.9473 224.219 98.9522 225.624C99.9838 227.074 102.575 229.705 102.613 229.333C102.621 229.25 102.85 229.357 103.121 229.562C105.856 231.706 114.429 233.253 118.098 232.248C118.301 232.196 118.567 232.149 118.693 232.141C118.829 232.134 119.084 232.087 119.288 232.035C119.491 231.982 120.077 231.864 120.596 231.781C122.325 231.498 125.777 229.344 126.955 227.805C127.267 227.399 127.784 226.826 128.081 226.574C129.192 225.592 132.307 220.588 132.716 219.127C132.781 218.894 132.9 218.646 132.979 218.591C133.125 218.481 135.416 213.268 136.151 211.372C136.391 210.749 136.786 209.736 137.036 209.125C137.275 208.513 138.163 206.027 139 203.64C139.836 201.252 140.72 198.714 140.976 198.03C141.695 196.09 142.795 192.228 143.142 190.459C143.778 187.165 143.781 187.134 143.273 186.383C143.001 185.98 142.694 185.72 142.562 185.779C142.442 185.84 142.355 185.769 142.369 185.635C142.383 185.49 142.239 185.371 142.043 185.351C141.846 185.331 141.701 185.223 141.714 185.099C141.734 184.892 139.638 183.762 138.716 183.491C138.453 183.412 137.904 183.169 137.488 182.95C136.054 182.178 131.926 181.019 128.372 180.378C127.369 180.192 125.978 179.916 125.296 179.753C123.95 179.45 112.675 178.213 111.256 178.225ZM95.0882 184.305C97.9717 185.39 99.7759 185.907 104.574 187.04C105.134 187.169 106.305 187.455 107.17 187.668C110.263 188.43 110.847 188.531 115.63 189.089C118.279 189.399 121.228 189.635 122.189 189.618C123.6 189.594 128.002 189.487 130.22 189.42C130.471 189.414 130.939 189.42 131.231 189.429C131.522 189.437 131.717 189.363 131.664 189.264C131.612 189.165 131.905 189.153 132.344 189.249C133.303 189.461 137.004 189.065 140.062 188.425C140.445 188.35 140.838 188.285 140.941 188.296C141.106 188.312 140.662 189.811 140.274 190.554C140.092 190.911 140.06 191.022 139.72 192.625C139.598 193.208 139.374 193.873 139.238 194.089C139.101 194.304 138.958 194.895 138.933 195.351C138.906 195.818 138.804 196.204 138.712 196.195C138.619 196.185 138.435 196.657 138.301 197.259C138.167 197.86 137.974 198.633 137.862 199.018C137.75 199.403 137.585 200.002 137.494 200.389C137.403 200.766 137.076 201.838 136.764 202.756C136.462 203.674 136.155 204.645 136.099 204.889C135.452 207.775 132.752 214.657 130.383 219.506C129.816 220.669 129.314 221.714 129.271 221.834C129.227 221.955 128.918 222.539 128.587 223.121C128.257 223.703 127.969 224.279 127.959 224.382C127.923 224.733 126.18 226.809 125.052 227.852C122.912 229.826 120.289 230.801 116.683 230.978C112.616 231.181 105.706 229.991 104.545 228.893C104.402 228.763 104.269 228.739 104.257 228.853C104.246 228.966 104.164 228.948 104.085 228.804C103.995 228.659 103.637 228.383 103.263 228.168C102.216 227.582 100.513 225.762 99.788 224.478C99.4161 223.825 99.0443 223.172 98.9268 222.993C98.529 222.39 97.7764 220.04 97.2446 217.775C97.0475 216.941 96.7773 215.902 96.6601 215.515C96.5326 215.126 96.2832 213.985 96.0997 213.017C95.9162 212.049 95.6964 211.13 95.6161 210.997C95.375 210.597 93.9579 200.19 93.8238 197.809C93.7856 197.054 93.5783 194.572 93.5079 193.928C93.4681 193.601 93.4183 192.96 93.3952 192.467C93.3721 191.974 93.2457 191.576 93.1218 191.563C92.9669 191.548 92.9753 191.465 93.1511 191.274C93.3258 191.094 93.3524 190.523 93.2175 189.487C93.1133 188.663 93.0443 187.801 93.0631 187.615C93.083 187.419 92.982 186.459 92.8326 185.464C92.5113 183.282 92.5072 183.324 92.9891 183.508C93.2203 183.594 94.1635 183.961 95.0882 184.305Z" fill="white"/>
<path d="M126.852 196.307C126.576 196.456 126.394 196.709 126.463 196.851C126.541 197.005 126.485 197.041 126.34 196.933C125.933 196.62 124.925 198.437 124.999 199.352C125.089 200.425 126.28 201.432 127.632 201.569C128.768 201.685 130.052 201.262 130.103 200.756C130.121 200.581 130.25 200.437 130.385 200.451C130.56 200.469 130.633 200.059 130.631 199.151C130.631 197.399 129.931 196.483 128.415 196.215C127.759 196.096 127.182 196.132 126.852 196.307Z" fill="white"/>
<path d="M104.844 196.923C103.541 197.125 103.055 197.284 103.031 197.522C103.018 197.656 102.812 197.938 102.56 198.163C101.849 198.789 101.505 202.082 102.024 203.136C102.978 205.047 105.976 205.82 107.879 204.647C108.847 204.046 109.923 202.799 109.983 202.2C110.015 201.891 110.121 201.662 110.235 201.673C110.483 201.698 110.342 200.516 109.978 199.373C109.466 197.736 107.047 196.594 104.844 196.923Z" fill="white"/>
<path d="M108.904 209.966C108.185 210.164 107.381 211.303 107.273 212.272C107.123 213.54 107.191 213.902 107.679 214.545C108.956 216.25 112.178 215.533 112.544 213.464C112.697 212.572 112.128 211.19 111.332 210.504C110.716 209.993 109.656 209.75 108.904 209.966Z" fill="white"/>
<path d="M121.091 216.614C120.392 217.336 120.243 218.698 120.783 219.545C121.295 220.358 121.92 220.37 122.909 219.562C123.546 219.043 123.652 218.814 123.627 218.039C123.574 216.397 122.104 215.57 121.091 216.614Z" fill="white"/>
<defs>
<clipPath id="clip0_1_281">
<rect width="128.358" height="129.442" fill="white" transform="translate(368 143)"/>
</clipPath>
<clipPath id="clip1_1_281">
<rect width="37.8228" height="37.8228" fill="white" transform="translate(582 446)"/>
</clipPath>
<clipPath id="clip2_1_281">
<rect width="72.5442" height="73.1367" fill="white" transform="translate(1154 48)"/>
</clipPath>
<clipPath id="clip3_1_281">
<rect width="20.2352" height="21.3195" fill="white" transform="translate(560 885)"/>
</clipPath>
<clipPath id="clip4_1_281">
<rect width="20.2352" height="21.3195" fill="white" transform="translate(128 885)"/>
</clipPath>
<clipPath id="clip5_1_281">
<rect width="20.2352" height="21.3195" fill="white" transform="translate(501 463)"/>
</clipPath>
<clipPath id="clip6_1_281">
<rect width="20.2352" height="21.3195" fill="white" transform="translate(3.92358 805.983)"/>
</clipPath>
<clipPath id="clip7_1_281">
<rect width="72.5442" height="73.1367" fill="white" transform="translate(1227 786)"/>
</clipPath>
<clipPath id="clip8_1_281">
<rect width="60.5165" height="60.5165" fill="white" transform="translate(247)"/>
</clipPath>
<clipPath id="clip9_1_281">
<rect width="122.067" height="87.6481" fill="white" transform="translate(469.656 916.722) rotate(-143.922)"/>
</clipPath>
<clipPath id="clip10_1_281">
<rect width="20.2352" height="21.3195" fill="white" transform="translate(277 575)"/>
</clipPath>
</defs>
</svg>
